<svg xmlns="http://www.w3.org/2000/svg" width="330" height="330" viewBox="0 0 330 330">
    <polygon points="310.09 -1.15 283.66 295.01 164.82 327.95 46.31 295.05 19.91 -1.15 310.09 -1.15" style="fill: #264de4"/>
    <polygon points="261.02 276.15 283.62 23.07 165 23.07 165 302.77 261.02 276.15" style="fill: #2965f1"/>
    <polygon points="80.45 132.93 83.7 169.25 165 169.25 165 132.93 80.45 132.93" style="fill: #ebebeb"/>
    <polygon points="165 59.4 164.87 59.4 73.91 59.4 77.21 95.72 165 95.72 165 59.4" style="fill: #ebebeb"/>
    <polygon points="165 265.07 165 227.27 164.84 227.32 124.38 216.39 121.8 187.42 102.14 187.42 85.33 187.42 90.42 244.46 164.83 265.12 165 265.07" style="fill: #ebebeb"/>
    <polygon points="209.61 169.25 205.39 216.37 164.87 227.31 164.87 265.1 239.35 244.46 239.9 238.32 248.43 142.68 249.32 132.93 255.88 59.4 164.87 59.4 164.87 95.72 216.06 95.72 212.76 132.93 164.87 132.93 164.87 169.25 209.61 169.25" style="fill: #fff"/>
</svg>
