<svg xmlns="http://www.w3.org/2000/svg" width="145" height="145" viewBox="0 0 145 145">
  <defs>
    <clipPath id="a">
      <path d="M69.11,1.74,12.94,34.17A6.76,6.76,0,0,0,9.54,40v64.89a6.78,6.78,0,0,0,3.4,5.88l56.18,32.45a6.83,6.83,0,0,0,6.78,0l56.17-32.45a6.82,6.82,0,0,0,3.39-5.88V40a6.78,6.78,0,0,0-3.4-5.87L75.9,1.74a6.87,6.87,0,0,0-6.8,0" style="fill: none"/>
    </clipPath>
    <linearGradient id="b" data-name="未命名的渐变" x1="-661.36" y1="367.24" x2="-659.76" y2="367.24" gradientTransform="matrix(-50.75, 103.54, 103.54, 50.75, -71475.37, 49826.34)" gradientUnits="userSpaceOnUse">
      <stop offset="0.3" stop-color="#3e863d"/>
      <stop offset="0.5" stop-color="#55934f"/>
      <stop offset="0.8" stop-color="#5aad45"/>
    </linearGradient>
    <clipPath id="c">
      <path d="M10.94,109.05a6.66,6.66,0,0,0,2,1.76l48.18,27.83,8,4.61a6.76,6.76,0,0,0,3.91.89,7.41,7.41,0,0,0,1.33-.24L133.64,35.42a6.5,6.5,0,0,0-1.58-1.26L95.28,12.92,75.84,1.74A7.22,7.22,0,0,0,74.08,1Z" style="fill: none"/>
    </clipPath>
    <linearGradient id="d" data-name="未命名的渐变 2" x1="-664.24" y1="356.13" x2="-663.2" y2="356.13" gradientTransform="matrix(142.41, -105.22, -105.22, -142.41, 132063.81, -19049.72)" gradientUnits="userSpaceOnUse">
      <stop offset="0.57" stop-color="#3e863d"/>
      <stop offset="0.72" stop-color="#619857"/>
      <stop offset="1" stop-color="#76ac64"/>
    </linearGradient>
    <clipPath id="e">
      <path d="M71.83.88a6.82,6.82,0,0,0-2.72.86l-56,32.33,60.4,110a6.71,6.71,0,0,0,2.41-.83l56.18-32.45a6.83,6.83,0,0,0,3.28-4.64L73.79,1A6.92,6.92,0,0,0,72.42.85a5.25,5.25,0,0,0-.56,0" style="fill: none"/>
    </clipPath>
    <linearGradient id="f" data-name="未命名的渐变 3" x1="-659.96" y1="355.85" x2="-659.02" y2="355.85" gradientTransform="matrix(129.89, 0, 0, -129.89, 85735.11, 46294)" gradientUnits="userSpaceOnUse">
      <stop offset="0.16" stop-color="#6bbf47"/>
      <stop offset="0.38" stop-color="#79b461"/>
      <stop offset="0.47" stop-color="#75ac64"/>
      <stop offset="0.7" stop-color="#659e5a"/>
      <stop offset="0.9" stop-color="#3e863d"/>
    </linearGradient>
  </defs>
  <g style="clip-path: url(#a)">
    <path d="M192.22,28.66,33.94-48.92-47.22,116.64l158.28,77.59Z" style="fill: url(#b)"/>
  </g>
  <g style="clip-path: url(#c)">
    <path d="M-57.5,51.61,54.26,202.88,202.08,93.67,90.3-57.59Z" style="fill: url(#d)"/>
  </g>
  <g style="clip-path: url(#e)">
    <path d="M13.1.85V144.09H135.34V.85Z" style="fill: url(#f)"/>
  </g>
</svg>
