<svg xmlns="http://www.w3.org/2000/svg" viewBox="0 0 750 540">
	<defs>
		<style>
			.a{fill:#d6eff9;}.b{fill:#fd7;}.c{fill:#ffcc3d;}.d{fill:#f9f0b5;}.e{fill:#804e30;}.f{fill:#ed2f49;}.g{fill:#fe7074;}.h{fill:#ff455e;}.i{fill:#1d2328;}.j{fill:#13829b;}.k{fill:#ffdb77;}.l{fill:#28d2e4;}.m{fill:#22313f;}.n{fill:#e4eaf8;}.o{fill:#d5dced;}.p{fill:#c7cfe2;}.q{fill:#ffdc64;}.r{fill:#ffc850;}.s{fill:#faebc8;}.t{fill:#f5dcb4;}
		</style>
	</defs>
	<path class="a"
		  d="M360.53,79.49C467.54,77.08,521.2-23,600.78,4.91c9.44,3.31,30.73,12.45,60.06,51.4,91.8,121.92,128.6,358.29,33,429.34-67.61,50.27-128.55-36.42-310.32-17.13C218.84,486,165.47,568.17,90.26,530-4.71,481.8-.32,309.88.16,291.14,3.19,172.77,64.44,21.91,158.32,4.91,235.68-9.1,257.65,81.8,360.53,79.49Z"/>
	<rect class="b" x="115.04" y="117.08" width="138.91" height="199.59"/>
	<polygon class="c" points="264.99 127.86 264.99 305.73 248.44 316.65 248.44 116.94 264.99 127.86"/>
	<polygon class="d" points="121.06 116.94 121.06 316.65 104.51 305.73 104.51 127.86 121.06 116.94"/>
	<path class="e" d="M265,307.64v21.85a13.26,13.26,0,0,1-13.26,13.26h-134a13.2,13.2,0,0,1-13.25-13.17V307.64Z"/>
	<path class="e" d="M265,106.68v21.93H104.51V106.68a13.2,13.2,0,0,1,13.25-13.17h134A13.2,13.2,0,0,1,265,106.68Z"/>
	<path class="f" d="M206.82,158.62a25,25,0,0,0-3.69.27L184.66,255.3l42.4-56a25.36,25.36,0,0,0-20.24-40.64Z"/>
	<path class="g" d="M166.19,158.89a24.84,24.84,0,0,0-3.69-.27,25.35,25.35,0,0,0-20.23,40.64l42.39,56Z"/>
	<path class="h"
		  d="M218.6,184c0-12.75-6.72-23.3-15.47-25.09a25,25,0,0,0-18.47,13.2,25,25,0,0,0-18.47-13.2c-8.75,1.79-15.47,12.34-15.47,25.09a32.27,32.27,0,0,0,3.66,15.28l30.28,56,30.28-56A32.27,32.27,0,0,0,218.6,184Z"/>
	<path class="i"
		  d="M251.62,90H117.35A17.35,17.35,0,0,0,100,107.35V329.41a17.35,17.35,0,0,0,17.35,17.35h134.3A17.35,17.35,0,0,0,269,329.41V107.35A17.38,17.38,0,0,0,251.62,90ZM108.53,133.63H261v169.5H108.53ZM117.68,98H251.82a9.16,9.16,0,0,1,9.16,9.16V125.1H108.53V107.18A9.16,9.16,0,0,1,117.68,98ZM251.81,338.23H117.68a9.16,9.16,0,0,1-9.15-9.16V311.15H261v18A9.15,9.15,0,0,1,251.81,338.23Z"/>
	<path class="i" d="M218.08,115.92a4.37,4.37,0,1,0-4.37-4.37A4.37,4.37,0,0,0,218.08,115.92Z"/>
	<path class="i"
		  d="M196,320.68H173.46a4.11,4.11,0,0,0-4.16,3.77,4,4,0,0,0,4,4.26h22.56a4.11,4.11,0,0,0,4.16-3.77A4,4,0,0,0,196,320.68Z"/>
	<path class="i"
		  d="M173.3,115.58h22.56a4.11,4.11,0,0,0,4.16-3.77,4,4,0,0,0-4-4.26H173.46a4.11,4.11,0,0,0-4.16,3.77A4,4,0,0,0,173.3,115.58Z"/>
	<path class="i"
		  d="M181.39,259.14a4.11,4.11,0,0,0,6.54,0l42.39-56a29.18,29.18,0,0,0,6-17.76A29.45,29.45,0,0,0,184.61,166,29.41,29.41,0,0,0,139,203.1ZM162.5,164.08a21.07,21.07,0,0,1,21,21,4.1,4.1,0,0,0,8.2,0,29.29,29.29,0,0,0-2.47-11.77,21.26,21.26,0,1,1,34.52,24.8l-39.13,51.71-39.13-51.71a21.27,21.27,0,0,1,17-34.08Z"/>
	<path class="i"
		  d="M232.18,272.54h-95a4.12,4.12,0,0,0-4.12,3.43,4,4,0,0,0,4,4.59h95a4.1,4.1,0,0,0,4.12-3.42A4,4,0,0,0,232.18,272.54Z"/>
	<path class="j"
		  d="M643.93,106.59V236a12.57,12.57,0,0,1-12.57,12.57H463A12.56,12.56,0,0,1,450.4,236V106.59A12.56,12.56,0,0,1,463,94H631.36A12.56,12.56,0,0,1,643.93,106.59Z"/>
	<rect class="k" x="483.07" y="114.13" width="129.44" height="113.73"/>
	<rect class="l" x="501.3" y="167.54" width="18.22" height="28.9"/>
	<rect class="l" x="538.37" y="147.44" width="18.22" height="49.01"/>
	<rect class="l" x="575.44" y="141.15" width="18.22" height="55.3"/>
	<path class="m"
		  d="M631.68,89H463.28A17.28,17.28,0,0,0,446,106.28V235.72A17.28,17.28,0,0,0,463.28,253h168.4A17.28,17.28,0,0,0,649,235.72V106.28A17.28,17.28,0,0,0,631.68,89Zm0,154.57H463.28a7.84,7.84,0,0,1-7.85-7.85V106.28a7.84,7.84,0,0,1,7.85-7.85h168.4a7.84,7.84,0,0,1,7.85,7.85V235.72A7.84,7.84,0,0,1,631.68,243.57Z"/>
	<path class="m"
		  d="M612.2,109.74H482.76a4.71,4.71,0,0,0-4.71,4.71V228.18a4.71,4.71,0,0,0,4.71,4.71H612.2a4.71,4.71,0,0,0,4.71-4.71V114.45A4.71,4.71,0,0,0,612.2,109.74Zm-4.71,113.73h-120V119.16h120Z"/>
	<circle class="m" cx="628.58" cy="171.2" r="7.45"/>
	<path class="m"
		  d="M461.71,155.88v30.65a4.82,4.82,0,0,0,4.12,4.85,4.71,4.71,0,0,0,5.3-4.68v-31a4.71,4.71,0,0,0-5.3-4.67A4.82,4.82,0,0,0,461.71,155.88Z"/>
	<path class="m"
		  d="M461.71,135.42v4.18a4.84,4.84,0,0,0,4.12,4.86,4.72,4.72,0,0,0,5.3-4.68v-4.54a4.71,4.71,0,0,0-5.3-4.68A4.84,4.84,0,0,0,461.71,135.42Z"/>
	<path class="m"
		  d="M501.61,201.48h91.74a4.71,4.71,0,0,0,4.71-4.72V141.47a4.71,4.71,0,0,0-4.71-4.72H575.13a4.72,4.72,0,0,0-4.72,4.72v50.58H561v-44.3a4.71,4.71,0,0,0-4.71-4.71h-17.6a4.71,4.71,0,0,0-4.71,4.71v44.3h-9.43V167.86a4.71,4.71,0,0,0-4.71-4.71H501.61a4.71,4.71,0,0,0-4.71,4.71v28.9A4.71,4.71,0,0,0,501.61,201.48Zm78.23-55.3h8.8v45.87h-8.8Zm-36.45,6.28h8.8v39.59h-8.8Zm-37.07,20.11h8.8v19.48h-8.8Z"/>
	<path class="n"
		  d="M496.32,420.4H242.82a10.59,10.59,0,0,1-10.55-10.63V186.85a10.59,10.59,0,0,1,10.55-10.63H496.33a10.59,10.59,0,0,1,10.55,10.63V409.78A10.59,10.59,0,0,1,496.32,420.4Z"/>
	<path class="o"
		  d="M482.81,420.4l24.07-24V306.94a21.29,21.29,0,0,0-3.5,2.8l-79.59,79.32-2.05,2-1.2,2.63L408.38,420.4Z"/>
	<path class="p" d="M232.27,218.47V186.85a10.59,10.59,0,0,1,10.55-10.63H496.33a10.59,10.59,0,0,1,10.55,10.63v31.62"/>
	<ellipse class="q" cx="285.01" cy="266.35" rx="10.55" ry="10.63"/>
	<ellipse class="r" cx="285.01" cy="319.48" rx="10.55" ry="10.63"/>
	<ellipse class="q" cx="285.01" cy="372.61" rx="10.55" ry="10.63"/>
	<path class="q"
		  d="M458,422.89l-41.05,18.79,18.66-41.33L514.37,321a5.24,5.24,0,0,1,7.46,0l14.93,15a5.35,5.35,0,0,1,0,7.52Z"/>
	<path class="r" d="M446,412.46l83.33-83.91L521.83,321a5.24,5.24,0,0,0-7.46,0l-78.78,79.31-.52,1.15Z"/>
	<polygon class="s" points="416.93 441.68 456.84 423.42 435.07 401.5 416.93 441.68"/>
	<polygon class="t" points="435.07 401.5 416.93 441.68 445.95 412.46 435.07 401.5"/>
	<path class="s" d="M521.83,321a5.24,5.24,0,0,0-7.46,0l-11,11.08,22.39,22.54,11-11.08a5.35,5.35,0,0,0,0-7.52Z"/>
	<path class="t" d="M529.3,328.55,521.83,321a5.24,5.24,0,0,0-7.46,0l-11,11.08,11.2,11.27Z"/>
	<path d="M406.05,415.43h-167a1.88,1.88,0,0,1-1.86-1.87V223.44h195a5.06,5.06,0,0,0,5.05-4.24,5,5,0,0,0-4.88-5.7H237.2V186.84a5.63,5.63,0,0,1,5.61-5.65H496.34a5.63,5.63,0,0,1,5.6,5.65V213.5H486a5.06,5.06,0,0,0-5.05,4.24,5,5,0,0,0,4.89,5.7h16.12v79.7a5.07,5.07,0,0,0,4.22,5.08,5,5,0,0,0,5.66-4.92V186.86a15.56,15.56,0,0,0-15.5-15.61H242.83a15.56,15.56,0,0,0-15.5,15.61V420.19a5.16,5.16,0,0,0,5.14,5.18H407.74a1.74,1.74,0,0,0,1.24-.53C413.13,420.55,410.18,415.43,406.05,415.43Z"/>
	<path d="M464.41,213.5H454a5,5,0,0,0-5,4.24,5,5,0,0,0,4.88,5.7h10.37a5.06,5.06,0,0,0,5.05-4.24A5,5,0,0,0,464.41,213.5Z"/>
	<path d="M253.34,192.38a5,5,0,0,0-4.73,6.39,4.84,4.84,0,0,0,3.16,3.31,5,5,0,0,0,6.18-6.75,4.76,4.76,0,0,0-4.44-3Z"/>
	<path d="M295.56,192.38a5,5,0,0,0-4.73,6.39,4.82,4.82,0,0,0,3.16,3.31,5,5,0,0,0,6.17-6.75,4.74,4.74,0,0,0-4.44-3Z"/>
	<path d="M274.4,192.38a5,5,0,0,0-4.73,6.39,4.82,4.82,0,0,0,3.16,3.31,5,5,0,0,0,6.17-6.75,4.75,4.75,0,0,0-4.44-3Z"/>
	<path d="M485.19,192.38H317a5.06,5.06,0,0,0-5.05,4.24,5,5,0,0,0,4.89,5.7h168.5a5,5,0,0,0,4.89-5.7A5.06,5.06,0,0,0,485.19,192.38Z"/>
	<path d="M285,250.74a15.61,15.61,0,1,0,15.5,15.61A15.57,15.57,0,0,0,285,250.74ZM285,272a5.65,5.65,0,1,1,5.6-5.64A5.63,5.63,0,0,1,285,272Z"/>
	<path d="M464.27,250.78H317a5.06,5.06,0,0,0-5.05,4.24,5,5,0,0,0,4.89,5.7H464.11a5,5,0,0,0,5-4.24A5,5,0,0,0,464.27,250.78Z"/>
	<path d="M316.68,281.85h10.37a5.06,5.06,0,0,0,5.05-4.25,5,5,0,0,0-4.89-5.69H316.84a5.06,5.06,0,0,0-5,4.24A5,5,0,0,0,316.68,281.85Z"/>
	<path d="M390.54,281.85a5,5,0,0,0,4.88-5.7,5.06,5.06,0,0,0-5.05-4.24h-10.2a5.06,5.06,0,0,0-5.05,4.24,5,5,0,0,0,4.88,5.7Z"/>
	<path d="M358.87,281.85a5,5,0,0,0,4.89-5.7,5.06,5.06,0,0,0-5.05-4.24H348.5a5,5,0,0,0-5,4.24,5,5,0,0,0,4.88,5.7Z"/>
	<path d="M285,303.87a15.61,15.61,0,1,0,15.5,15.61A15.57,15.57,0,0,0,285,303.87Zm0,21.25a5.65,5.65,0,1,1,5.6-5.64A5.63,5.63,0,0,1,285,325.12Z"/>
	<path d="M464.1,303.59H317a5.06,5.06,0,0,0-5.05,4.24,5,5,0,0,0,4.89,5.7H464.27a5,5,0,0,0,4.88-5.7A5.06,5.06,0,0,0,464.1,303.59Z"/>
	<path d="M316.68,335.28h10.37A5.06,5.06,0,0,0,332.1,331a5,5,0,0,0-4.89-5.7H316.84a5.06,5.06,0,0,0-5,4.24A5,5,0,0,0,316.68,335.28Z"/>
	<path d="M390.54,335.28a5,5,0,0,0,4.88-5.7,5.06,5.06,0,0,0-5.05-4.24h-10.2a5.06,5.06,0,0,0-5.05,4.24,5,5,0,0,0,4.88,5.7Z"/>
	<path d="M358.87,335.28a5,5,0,0,0,4.89-5.7,5.06,5.06,0,0,0-5.05-4.24h-10.2a5.06,5.06,0,0,0-5.05,4.24,5,5,0,0,0,4.88,5.7Z"/>
	<path d="M285,357a15.61,15.61,0,1,0,15.5,15.61A15.57,15.57,0,0,0,285,357Zm0,21.25a5.65,5.65,0,1,1,5.6-5.64A5.63,5.63,0,0,1,285,378.25Z"/>
	<path d="M416.66,357H316.94a5.06,5.06,0,0,0-5.05,4.24,5,5,0,0,0,4.89,5.7H416.83a5,5,0,0,0,4.88-5.7A5.06,5.06,0,0,0,416.66,357Z"/>
	<path d="M316.68,378.15a5,5,0,0,0-4.89,5.7,5.06,5.06,0,0,0,5,4.24h10.21a5.06,5.06,0,0,0,5.05-4.24,5,5,0,0,0-4.89-5.7Z"/>
	<path d="M380,378.15a5,5,0,0,0-4.88,5.7,5.06,5.06,0,0,0,5.05,4.24h10.2a5.06,5.06,0,0,0,5.05-4.24,5,5,0,0,0-4.88-5.7Z"/>
	<path d="M348.34,378.15a5,5,0,0,0-4.88,5.7,5,5,0,0,0,5.05,4.24h10.2a5.06,5.06,0,0,0,5.05-4.24,5,5,0,0,0-4.89-5.7Z"/>
	<path d="M540.26,332.54l-14.93-15a10.19,10.19,0,0,0-14.46,0l-78.78,79.32a4.87,4.87,0,0,0-1,1.46l-18.66,41.33a5,5,0,0,0,1,5.58,4.91,4.91,0,0,0,5.55,1l41-18.78a5.09,5.09,0,0,0,1.46-1l78.78-79.32a10.36,10.36,0,0,0,0-14.56Zm-97.67,67.81,60.58-61,15.4,15.5-60.59,61ZM437.14,409l12.29,12.37-22.54,10.32Zm96.12-68.91-7.7,7.75-15.39-15.49,7.7-7.75a.31.31,0,0,1,.46,0l14.93,15a.36.36,0,0,1,.1.24A.3.3,0,0,1,533.26,340.05Z"/>
</svg>
