<svg xmlns="http://www.w3.org/2000/svg" xmlns:xlink="http://www.w3.org/1999/xlink" viewBox="0 0 790 540"><defs><style>.a{fill:#d6eff9;}.b{fill:#fff;}.c{fill:#ffc10d;}.d{fill:#56ace0;}.e{fill:#194f82;}.f{fill-opacity:0.2;}.g{fill:url(#a);}.al,.h,.p{stroke:#000;}.h{stroke-width:0.98px;}.i{fill:url(#b);}.j{fill:url(#c);}.k{fill:url(#d);}.l{fill:url(#e);}.m{fill:url(#f);}.n{fill:url(#g);}.o{fill:url(#h);}.p{stroke-width:1.25px;}.q{fill:url(#i);}.r{fill:url(#j);}.s{fill:url(#k);}.t{fill:url(#l);}.aa,.ab,.u,.w{stroke:#e68c3f;}.u{stroke-width:6.25px;fill:url(#m);}.v{fill:url(#n);}.w{stroke-width:6.25px;fill:url(#o);}.x{fill:url(#p);}.y{fill:url(#q);}.z{fill:url(#r);}.aa{stroke-width:3.75px;fill:url(#s);}.ab,.al{fill:none;}.ab{stroke-width:2.5px;}.ac{fill:url(#t);}.ad{fill:#36a9e1;}.ae{fill:#5ebae7;}.af{fill:#1d1d1b;}.ag{fill:#2f5e88;}.ah{fill:#367596;}.ai{fill:#88acb5;}.aj{fill:#a7cbcf;}.ak{fill:#e5fafc;}.al{stroke-miterlimit:10;stroke-width:15.1px;}</style><linearGradient id="a" x1="-698.54" y1="954.63" x2="-698.53" y2="955.1" gradientTransform="matrix(34.91, 0, 0, -92.07, 24685.6, 88236.76)" gradientUnits="userSpaceOnUse"><stop offset="0" stop-color="#ffeed7"/><stop offset="1" stop-color="#bdbfc2"/></linearGradient><linearGradient id="b" x1="-703.98" y1="967.55" x2="-704.03" y2="966.98" gradientTransform="matrix(60.17, 0, 0, -45.77, 42619.33, 44489.45)" gradientUnits="userSpaceOnUse"><stop offset="0" stop-color="#fff" stop-opacity="0.8"/><stop offset="1" stop-color="#fff" stop-opacity="0"/></linearGradient><linearGradient id="c" x1="-685.88" y1="981.18" x2="-685.9" y2="981.69" gradientTransform="matrix(19.27, 0, 0, -29.59, 13459.93, 29270.44)" xlink:href="#a"/><linearGradient id="d" x1="-693.63" y1="975.72" x2="-693.63" y2="976.18" gradientTransform="matrix(26.64, 0, 0, -34.35, 18748.12, 33757.91)" xlink:href="#a"/><linearGradient id="e" x1="-642.28" y1="1053.6" x2="-642.33" y2="1053.02" gradientTransform="matrix(7.14, 0, 0, -10.49, 4852.23, 11281.65)" gradientUnits="userSpaceOnUse"><stop offset="0" stop-color="#fff" stop-opacity="0.65"/><stop offset="1" stop-color="#fff" stop-opacity="0"/></linearGradient><linearGradient id="f" x1="-618.13" y1="1074.39" x2="-618.07" y2="1073.82" gradientTransform="matrix(5.42, 0, 0, -8.84, 3593.09, 9729.36)" xlink:href="#e"/><linearGradient id="g" x1="-707.94" y1="948.71" x2="-707.94" y2="949.03" gradientTransform="matrix(113.16, 0, 0, -171.24, 80372.19, 162798.41)" xlink:href="#a"/><linearGradient id="h" x1="-701.79" y1="953.46" x2="-701.86" y2="953.96" gradientTransform="matrix(49.03, 0, 0, -102.17, 34640.01, 97761.02)" xlink:href="#a"/><linearGradient id="i" x1="-706.18" y1="960.35" x2="-706.17" y2="959.83" gradientTransform="matrix(81.27, 0, 0, -66.21, 57647.21, 63867.27)" xlink:href="#b"/><linearGradient id="j" x1="-702.29" y1="972.66" x2="-702.29" y2="972.3" gradientTransform="matrix(49.95, 0, 0, -38.66, 35341, 37864.59)" xlink:href="#e"/><linearGradient id="k" x1="-696.34" y1="954.33" x2="-696.34" y2="953.81" gradientTransform="matrix(32.62, 0, 0, -99.72, 22932.17, 95436.55)" xlink:href="#e"/><linearGradient id="l" x1="-698.09" y1="954" x2="-698.09" y2="953.55" gradientTransform="matrix(33.57, 0, 0, -102.26, 23739.43, 97817.23)" xlink:href="#e"/><linearGradient id="m" x1="-706.11" y1="956.91" x2="-706.2" y2="956.59" gradientTransform="matrix(84.09, 0, 0, -82.05, 59589.87, 78858.17)" gradientUnits="userSpaceOnUse"><stop offset="0" stop-color="#ffa63f"/><stop offset="1" stop-color="#ff0"/></linearGradient><linearGradient id="n" x1="-699.61" y1="974.83" x2="-699.64" y2="976.17" gradientTransform="matrix(37.77, 0, 0, -36.24, 26727.73, 35665.35)" xlink:href="#a"/><linearGradient id="o" x1="-706.41" y1="956.2" x2="-706.17" y2="955.84" gradientTransform="matrix(78.66, 0, 0, -86.74, 55865.18, 83271.34)" xlink:href="#m"/><linearGradient id="p" x1="-701.07" y1="961.16" x2="-701.14" y2="960.62" gradientTransform="matrix(42.98, 0, 0, -65.27, 30435.85, 63044.37)" xlink:href="#e"/><linearGradient id="q" x1="-703.12" y1="963.36" x2="-703.09" y2="962.69" gradientTransform="matrix(56.58, 0, 0, -58.05, 40000.44, 56241.15)" xlink:href="#e"/><linearGradient id="r" x1="-690.45" y1="1002.49" x2="-690.36" y2="1001.91" gradientTransform="matrix(21.96, 0, 0, -20.14, 15461.84, 20498.95)" xlink:href="#e"/><linearGradient id="s" x1="-703.69" y1="972.8" x2="-703.68" y2="972.27" gradientTransform="matrix(57.99, 0, 0, -38.37, 41067.07, 37568.24)" xlink:href="#m"/><linearGradient id="t" x1="-694.64" y1="1006.81" x2="-694.65" y2="1006.22" gradientTransform="matrix(28.51, 0, 0, -18.18, 20060.79, 18540.12)" xlink:href="#e"/></defs><path class="a" d="M375.44,144.1c71-5.67,142.63-7,185.5-58.31,11.59-13.85,14.18-23.1,31.07-38.87,3.75-3.49,69-62.92,127.12-42.75,50.51,17.54,59.49,99.08,67.79,169.08,2.83,23.87,16.19,150.9-48,269.18-22.88,42.16-43.65,61.14-62.14,72.88-36.38,23.09-73.28,24-94.16,24.3-209.5,2.7-316-8.32-485.87-40.82-43.32-8.28-65.93-13.22-81-34C-28.57,403.57,24.67,249.14,125,186.86,167,160.75,236.5,155.2,375.44,144.1Z"/><path class="b" d="M535.76,308.81a5,5,0,0,0,5-4.94V272.75a5,5,0,0,0-5.08-4.92H383.53a5,5,0,0,0-5.08,4.92v31.17a5,5,0,0,0,5.08,4.92H535.76Z"/><path class="c" d="M535.76,359.52a5,5,0,0,0,5-4.94V323.47a5,5,0,0,0-5.08-4.92H383.53a5,5,0,0,0-5.08,4.92v31.16a5,5,0,0,0,5.08,4.92H535.76Z"/><rect class="d" x="447.38" y="401.1" width="25.01" height="24.28"/><path d="M551.33,272.41a15.06,15.06,0,0,0-15.24-14.83H383.69a15,15,0,0,0-15.25,14.8V303.8a14.51,14.51,0,0,0,3.92,9.88,14.54,14.54,0,0,0-3.92,9.9V355a15,15,0,0,0,15.25,14.79h70.92v21.59H442a5,5,0,0,0-5.15,4.92v12.34H374.15a4.86,4.86,0,1,0,0,9.71h63.22v12.26a5,5,0,0,0,5.07,5h34.89a5,5,0,0,0,5.07-5V418.36h62.67a4.92,4.92,0,0,0,5-5.1,5.07,5.07,0,0,0-5.19-4.61H482.4V396.31a5,5,0,0,0-5.16-4.92H464.61V369.8h71.47A15,15,0,0,0,551.33,355V323.58a14.49,14.49,0,0,0-3.92-9.87,14.65,14.65,0,0,0,3.92-9.88V272.41Zm-78.94,153h-25V401.1h25v24.28Zm68.93-70.75a5,5,0,0,1-5.1,4.92H383.55a5,5,0,0,1-5.1-4.92V323.47a5,5,0,0,1,5.1-4.92H536.22a5,5,0,0,1,5.1,4.92v31.16Zm0-50.71a5,5,0,0,1-5.1,4.92H383.55a5,5,0,0,1-5.1-4.92V272.75a5,5,0,0,1,5.1-4.92H536.22a5,5,0,0,1,5.1,4.92v31.17Z"/><path class="e" d="M401.8,276.32a4.93,4.93,0,0,0-5,4.86v13.93a4.93,4.93,0,0,0,5.26,4.85,5,5,0,0,0,4.75-5V281.18A4.93,4.93,0,0,0,401.8,276.32Z"/><path class="e" d="M425.7,276.32a4.93,4.93,0,0,0-5,4.86v13.93A4.93,4.93,0,0,0,426,300a5,5,0,0,0,4.74-5V281.18A5,5,0,0,0,425.7,276.32Z"/><path class="e" d="M517.44,283.48H503.08a4.86,4.86,0,1,0,0,9.71h14.36a4.86,4.86,0,1,0,0-9.71Z"/><path class="e" d="M401.8,327.38a4.93,4.93,0,0,0-5,4.86v13.93a4.93,4.93,0,0,0,5.26,4.85,5,5,0,0,0,4.75-5V332.24A4.93,4.93,0,0,0,401.8,327.38Z"/><path class="e" d="M425.7,327.38a4.93,4.93,0,0,0-5,4.86v13.93A4.93,4.93,0,0,0,426,351a5,5,0,0,0,4.74-5V332.24A5,5,0,0,0,425.7,327.38Z"/><path class="e" d="M517.44,334.19H503.08a4.86,4.86,0,1,0,0,9.72h14.36a4.86,4.86,0,1,0,0-9.72Z"/><path class="f" d="M337,359.36c0,11.25-35.12,20.41-78.45,20.41s-78.46-9.11-78.46-20.41h0c0-11.24,35.13-20.4,78.46-20.4s78.39,9.16,78.45,20.4Z"/><path d="M215.54,337.41c-7.6-10.59-9.07-45.09,8.65-66.33,8.76-10.18,11-17.25,11.7-26.83.49-10.89-7.9-43.31,23.72-45.75,32.06-2.5,30.28,28.2,30.1,44.44-.13,13.68,10.36,21.47,17.59,32.18,13.3,19.63,12.2,53.43-2.51,71.75-18.64,22.9-34.57,13-45.18,13.8-19.86,1.13-20.53,11.36-44.07-23.26Z"/><path class="g" d="M292.89,277.15c5.52,4.93,19.8,27-2.81,40.81-8,4.81,7.11,23.14,14.34,14.27,12.81-15.94,4.66-41.4-3.07-50.5-5.15-6.43-13.11-8.93-8.46-4.58Z"/><path class="h" d="M291.36,274.17c9.07,7.14,25.56,32.13,1.47,48.43-7.9,5,7,21.06,15.39,12.91,29.11-28.44-.74-61.1-11-72.34-9.2-9.82-17.35,2.26-5.83,11Z"/><path class="i" d="M278.31,214c-.31,8.15-9.56,15.23-20.66,15.88s-19.8-5.53-19.49-13.68h0c.31-8.15,9.56-15.23,20.66-15.89s19.79,5.54,19.49,13.69Z"/><path class="j" d="M251.77,233.42c.3,5.29-2.27,9.76-5.83,9.94s-6.68-3.93-7-9.23h0c-.31-5.29,2.26-9.75,5.82-9.93s6.68,3.93,7,9.22Z"/><path class="k" d="M258.2,233.84c.13,6.12,4.23,11,9.14,10.88s8.76-5.17,8.64-11.36h0c-.12-6.13-4.23-11-9.13-10.89s-8.83,5.24-8.65,11.37Z"/><path d="M262.25,235.2c-.06,3.4,1.65,6.13,3.92,6.13s4.11-2.73,4.17-6.07h0c.06-3.39-1.66-6.12-3.92-6.12s-4.11,2.73-4.17,6.06Z"/><path d="M248.09,235.26c.31,2.8-.8,5.18-2.39,5.42s-3.13-1.91-3.43-4.7h0c-.31-2.8.79-5.18,2.39-5.42s3.12,1.91,3.43,4.7Z"/><path class="l" d="M263.17,233.3c-.19,1.9.73,3.45,2,3.57s2.51-1.37,2.7-3.21h0c.18-1.91-.74-3.45-2-3.57s-2.51,1.37-2.69,3.21Z"/><path class="m" d="M246.74,233.78c.19,1.54-.49,2.91-1.47,3s-1.9-1.07-2.08-2.68h0c-.19-1.54.49-2.91,1.47-3s1.9,1.13,2.08,2.68Z"/><path class="n" d="M227.43,292.2c4.36-9.58,13.61-26.42,13.79-39.45,0-10.35,31.94-12.85,34.51-2.49s9.07,25.81,13.24,33.31,16.24,31.17,3.37,51.88c-11.58,18.32-46.7,32.84-65.46-2.5-6.37-12.26-5.21-27.43.55-40.75Z"/><path class="o" d="M223.51,285.06c-3.74,6.84-11.46,24.81,7.42,34.62,20.29,10.47,20.22,31.95-4.17,21.72-22.31-9.23-12.44-46.59-6.19-55.51,4-6.25,10.17-13.92,2.94-.83Z"/><path class="p" d="M226.7,277.32c-5.95,9.4-20.17,31.53-1.1,43.08,25.62,15.28,18.38,30.51-5,16.77-33-19.15-4-57.82,9.19-72.58,15.08-16.54,2.88,3-3.06,12.73Z"/><path class="q" d="M284.44,295.83c0,10.47-10.36,24-28.14,23.91-18.32.12-26.11-13.44-26.11-23.91s12.14-19,27.09-19,27.16,8.51,27.16,19Z"/><path class="r" d="M274.75,262.93c-.18,10.82-7.48,13.38-16.67,13.38s-15.87-1.6-16.67-13.38c0-7.38,7.48-11.66,16.67-11.66s16.67,4.22,16.67,11.66Z"/><path class="s" d="M219.16,279.58c6-8.86,18.69-22.48,2.39,1.91-13.24,20.11-4.9,33-.61,36.59,12.38,10.7,11.89,17.9,2.14,12.25-20.9-12.08-16.55-32.42-3.92-50.75Z"/><path class="t" d="M306.13,283.21c-5.21-10.41-21.76-36.82.8-6.12,20.53,27.78,6.13,47.11,3.56,49s-11.22,5.77-8.71-1,15.33-19.45,4.35-41.94Z"/><path class="u" d="M214.62,365.31c-13.73-7.08-33.65,1.37-26.41-17.79,1.47-4.34-2.15-10.88.18-15.11,2.76-5.17,8.7-4,12.26-7.49s5.7-9.76,12.26-8.81,10.85,8.69,15.38,18.21c3.37,6.78,15.26,16.36,14.47,24-1,11.66-14.65,13.86-28.14,7Z"/><path class="v" d="M314.59,320.34c-2.08,3.8-10.79,9.93-16.61,8.32s-8.58-10.23-7.41-16.83c1.1-7.38,7.41-7.79,15.38-4.11,8.58,4.11,11.16,7.56,8.64,12.62Z"/><path class="w" d="M309.81,362c10.05-11.84,32.43-9.4,17.35-25.64-3.19-3.51-2.21-11-6.13-14.22-4.6-3.93-9.69-.71-14.34-2.74-4.66-2.2-9.57-6.42-15.27-3.45s-6.31,10.89-6.86,21.24c-.49,7.44-7.48,19.87-3.74,26.71,5.39,10.59,19.43,9.16,29-1.9Z"/><path class="x" d="M305.46,346.21c15.57-22.3,4-22.13.06-23.85s-8-5.3-12.63-2.86-4.84,8.93-5,17.37c-.18,6.07-5.39,16.25-2.27,21.9,3.8,6.6,13-3,19.8-12.56Z"/><path class="y" d="M211.44,349.43c-23.29-14.64-12.38-19.64-8.89-22,4.23-3,4.29-8.68,9.5-8.15s8.27,6.79,11.77,14.52c2.57,5.53,11.52,12.91,10.85,19.28-.86,7.49-13.18,2.55-23.23-3.69Z"/><path d="M313.24,320.16c-1.84,3.09-9.31,8-14.28,6.66s-7.41-8.21-6.37-13.44c.92-5.95,6.37-6.25,13.24-3.28,7.29,3.22,9.56,5.95,7.41,10.06Z"/><path class="z" d="M308.22,318.43c-1.17,2.14-6.07,5.53-9.5,4.64s-5.15-5.71-4.6-9.34c.49-4.1,4.17-4.34,8.83-2.32,5,2.26,6.62,4.17,5.27,7Z"/><path class="aa" d="M244.84,240.8c2.45-2.2,8.4-8.93,19.68-1.91,2.08,1.31,3.8,1.43,7.78,3.1,8,3.21,4.23,10.94-4.35,13.56-3.68,1.13-7,5.47-13.61,5.06-5.7-.3-7.17-3.93-10.66-5.89-6.19-3.39-7.11-8-3.74-10.41s4.66-3.33,4.9-3.51Z"/><path class="ab" d="M272.42,247c-3.37.18-10.66,7.26-18.32,7.26s-12.26-6.9-13.43-6.9"/><path class="ac" d="M248.64,240.2a8.35,8.35,0,0,1,10.18-1c1.1.6,2.2,1.25,3.8,2.14,3.24,1.85,1.65,4.52-2.27,6.19-1.78.71-4.72,2.26-6.93,2.14-2.45-.24-4.1-1.78-5.7-2.8-3-1.9-2.82-3.5-1.41-4.75a24.12,24.12,0,0,1,2.33-1.91Z"/><path class="ad" d="M330.07,358.51c0-.76.12-1.52.12-2.29,0-25.26-21.1-45.73-47.12-45.73a48.52,48.52,0,0,0-14.8,2.33A76,76,0,0,0,207.67,283c-41.64,0-75.39,32.77-75.39,73.18,0,.39.05.76.06,1.14-27.5,5.39-48,29.36-47.16,57.83,1,31,27.62,55.37,59.54,55.37h169c32.53,0,58.9-25.59,58.9-57.17C372.6,387.34,354.63,365.4,330.07,358.51Z"/><path class="ae" d="M268.28,312.56a76,76,0,0,0-60.61-29.77c-41.64,0-75.39,32.76-75.39,73.18,0,.38.05.75.06,1.14-26.92,5.27-47.18,28.35-47.18,56,0,31.57,26.37,57.17,58.9,57.17"/><path class="af" d="M313.7,474.5H144.06c-35,0-63.43-27.62-63.43-61.56,0-28,19.62-52.43,47.16-59.51,1.28-41.69,36.62-75.23,79.88-75.23A80.58,80.58,0,0,1,270,307.3a52.94,52.94,0,0,1,13.11-1.66c28.17,0,51.15,22,51.63,49.25a64,64,0,0,1,29.44,20.76,59.75,59.75,0,0,1,13,37.29C377.12,446.88,348.67,474.5,313.7,474.5Zm-106-187.18c-39.08,0-70.87,30.86-70.87,68.79v.11q0,.48.06,1l.06,3.65-3.69.73c-25.23,4.94-43.55,26.7-43.55,51.73,0,29.1,24.39,52.78,54.38,52.78H313.18c29.33,0,53.85-22.33,54.92-50.78a51.2,51.2,0,0,0-11.09-34,54.86,54.86,0,0,0-28.13-18.7l-3.44-1,.18-3.46c0-.29,0-.58.05-.87s.06-.85.06-1.21c0-22.79-19.11-41.34-42.6-41.34a43.8,43.8,0,0,0-13.38,2.11l-3.1,1-1.95-2.56A71,71,0,0,0,207.73,287.32Z"/><path class="b" d="M168,341.29h-9c0-19.81,16.61-35.93,37-35.93v8.78C180.56,314.14,168,326.32,168,341.29Z"/><rect class="ag" x="698.12" y="288.08" width="18.74" height="114.52"/><rect class="ah" x="577.01" y="288.08" width="128.4" height="114.52"/><path class="ai" d="M717.09,261.81H705.76v33.34h11.33a5.61,5.61,0,0,0,5.67-5.5V267.31A5.6,5.6,0,0,0,717.09,261.81Z"/><path class="ai" d="M717.09,306.27H705.76v33.34h11.33a5.61,5.61,0,0,0,5.67-5.5V311.77A5.6,5.6,0,0,0,717.09,306.27Z"/><path class="aj" d="M711.31,311.77v22.34a5.61,5.61,0,0,1-5.67,5.5H577.13a5.61,5.61,0,0,1-5.67-5.5V311.77a5.6,5.6,0,0,1,5.67-5.5H705.64A5.6,5.6,0,0,1,711.31,311.77Z"/><path class="ai" d="M717.09,350.73H705.76v33.34h11.33a5.61,5.61,0,0,0,5.67-5.5V356.23A5.6,5.6,0,0,0,717.09,350.73Z"/><path class="ai" d="M717.09,395.52H705.76v33.35h11.33a5.61,5.61,0,0,0,5.67-5.51V401A5.61,5.61,0,0,0,717.09,395.52Z"/><path class="aj" d="M711.31,356.21v22.36a5.61,5.61,0,0,1-5.67,5.5H577.13a5.61,5.61,0,0,1-5.67-5.5V356.23a5.6,5.6,0,0,1,5.67-5.5H705.64A5.59,5.59,0,0,1,711.31,356.21Z"/><path class="aj" d="M711.31,401v22.33a5.61,5.61,0,0,1-5.67,5.51H577.13a5.61,5.61,0,0,1-5.67-5.51V401a5.61,5.61,0,0,1,5.67-5.51H705.64A5.61,5.61,0,0,1,711.31,401Z"/><path class="aj" d="M711.31,267.31v22.34a5.61,5.61,0,0,1-5.67,5.5H577.13a5.61,5.61,0,0,1-5.67-5.5V267.31a5.6,5.6,0,0,1,5.67-5.5H705.64A5.6,5.6,0,0,1,711.31,267.31Z"/><path class="ak" d="M647,275.62H599.83a2.83,2.83,0,0,1-2.86-2.31,2.75,2.75,0,0,1,2.81-3.08H647a2.84,2.84,0,0,1,2.86,2.3A2.76,2.76,0,0,1,647,275.62Z"/><path class="ak" d="M588.38,275.62h-5.44a2.82,2.82,0,0,1-2.88-2.53,2.72,2.72,0,0,1,2.77-2.86h5.44a2.81,2.81,0,0,1,2.88,2.52A2.73,2.73,0,0,1,588.38,275.62Z"/><path class="ak" d="M647,320.08H599.83a2.83,2.83,0,0,1-2.86-2.31,2.75,2.75,0,0,1,2.81-3.08H647a2.84,2.84,0,0,1,2.86,2.3A2.76,2.76,0,0,1,647,320.08Z"/><path class="ak" d="M588.38,320.08h-5.44a2.82,2.82,0,0,1-2.88-2.53,2.72,2.72,0,0,1,2.77-2.86h5.44a2.82,2.82,0,0,1,2.88,2.53A2.73,2.73,0,0,1,588.38,320.08Z"/><path class="ak" d="M647,364.54H599.83a2.83,2.83,0,0,1-2.86-2.31,2.75,2.75,0,0,1,2.81-3.08H647a2.84,2.84,0,0,1,2.86,2.3A2.76,2.76,0,0,1,647,364.54Z"/><path class="ak" d="M588.38,364.54h-5.44a2.82,2.82,0,0,1-2.88-2.53,2.72,2.72,0,0,1,2.77-2.86h5.44a2.82,2.82,0,0,1,2.88,2.53A2.73,2.73,0,0,1,588.38,364.54Z"/><path class="ak" d="M647,409H599.83a2.83,2.83,0,0,1-2.86-2.31,2.75,2.75,0,0,1,2.81-3.08H647a2.84,2.84,0,0,1,2.86,2.3A2.76,2.76,0,0,1,647,409Z"/><path class="ak" d="M588.38,409h-5.44a2.82,2.82,0,0,1-2.88-2.53,2.72,2.72,0,0,1,2.77-2.86h5.44a2.82,2.82,0,0,1,2.88,2.52A2.73,2.73,0,0,1,588.38,409Z"/><path d="M725.54,289.84V267.37a8.39,8.39,0,0,0-8.51-8.26H577.19a8.39,8.39,0,0,0-8.51,8.26v22.47a8.28,8.28,0,0,0,5.56,7.78v6.45a8.28,8.28,0,0,0-5.56,7.78v22.47a8.26,8.26,0,0,0,5.56,7.78v6.46a8.28,8.28,0,0,0-5.56,7.79v22.46a8.28,8.28,0,0,0,5.56,7.79v6.46a8.26,8.26,0,0,0-5.56,7.78v22.47a8.38,8.38,0,0,0,8.51,8.25H717a8.38,8.38,0,0,0,8.51-8.25V400.84a8.26,8.26,0,0,0-5.55-7.78V386.6a8.28,8.28,0,0,0,5.55-7.78V356.35a8.28,8.28,0,0,0-5.55-7.79v-6.45a8.28,8.28,0,0,0,5.55-7.79V311.85a8.28,8.28,0,0,0-5.55-7.78v-6.45A8.28,8.28,0,0,0,725.54,289.84Zm-151.3-22.59a2.79,2.79,0,0,1,2.83-2.75H716.8a2.79,2.79,0,0,1,2.84,2.75V289.7a2.8,2.8,0,0,1-2.84,2.76H577.07a2.8,2.8,0,0,1-2.83-2.76V267.25Zm5.55,36.32v-5.39h134.3v5.39Zm0,88.92V387.1h134.3v5.39Zm139.85,30.93a2.79,2.79,0,0,1-2.83,2.75H577.07a2.79,2.79,0,0,1-2.83-2.75V401a2.79,2.79,0,0,1,2.83-2.75H716.8a2.79,2.79,0,0,1,2.84,2.75v22.45Zm0-44.79a2.8,2.8,0,0,1-2.83,2.75H577.07a2.8,2.8,0,0,1-2.83-2.75V356.17a2.79,2.79,0,0,1,2.83-2.75H716.8a2.79,2.79,0,0,1,2.84,2.75v22.46Zm0-44.16a2.8,2.8,0,0,1-2.83,2.78H705.72a2.82,2.82,0,0,0-2.88,2.53,2.72,2.72,0,0,0,2.77,2.86h8.48V348H579.79v-5.39H694.11a2.83,2.83,0,0,0,2.85-2.3,2.75,2.75,0,0,0-2.81-3.09H577.07a2.79,2.79,0,0,1-2.83-2.75V311.71a2.79,2.79,0,0,1,2.83-2.75H716.8a2.79,2.79,0,0,1,2.84,2.75v22.76Z"/><line class="al" x1="543.32" y1="413.47" x2="570.02" y2="413.47"/></svg>