<svg xmlns="http://www.w3.org/2000/svg" viewBox="0 0 765 640"><defs><style>.a,.c,.x,.y,.z{fill:none;}.b{fill:#d6eff9;}.c{stroke:#f40082;stroke-width:10px;}.aa,.ab,.c,.v{stroke-miterlimit:10;}.d{fill:#e2804f;}.e{fill:#d4e4ac;}.aa,.ab,.f{fill:#fff;}.g{fill:#f2bf7e;}.h{fill:#a42122;}.i{fill:#d82f27;}.j{fill:#791514;}.k{fill:#ad2524;}.l{clip-path:url(#a);}.m{fill:url(#b);}.n{clip-path:url(#c);}.o{fill:url(#d);}.p{clip-path:url(#e);}.q{fill:url(#f);}.r{fill:#43a047;}.s{fill:url(#g);}.t{fill:url(#h);}.u{isolation:isolate;opacity:0.44;fill:url(#i);}.v{stroke:#000;stroke-width:5.37px;}.w{fill:#336791;}.aa,.ab,.x,.y,.z{stroke:#fff;}.x,.y{stroke-linecap:round;}.x,.z{stroke-linejoin:round;}.x,.y,.z{stroke-width:1.79px;}.y{stroke-linejoin:bevel;}.aa{stroke-width:0.6px;}.ab{stroke-width:0.3px;}.ac{fill:#6db33f;}</style><clipPath id="a"><path class="a" d="M629.84,346.26l-31.46,18.16a3.82,3.82,0,0,0-1.9,3.29v36.35a3.8,3.8,0,0,0,1.9,3.29l31.47,18.17a3.79,3.79,0,0,0,3.8,0l31.45-18.17a3.8,3.8,0,0,0,1.9-3.29V367.71a3.8,3.8,0,0,0-1.9-3.29l-31.46-18.16a3.86,3.86,0,0,0-3.81,0"/></clipPath><linearGradient id="b" x1="-52.67" y1="712.02" x2="-51.77" y2="712.02" gradientTransform="matrix(-50.75, 103.54, 103.54, 50.75, -75737.92, -30344.47)" gradientUnits="userSpaceOnUse"><stop offset="0.3" stop-color="#3e863d"/><stop offset="0.5" stop-color="#55934f"/><stop offset="0.8" stop-color="#5aad45"/></linearGradient><clipPath id="c"><path class="a" d="M597.29,406.35a3.74,3.74,0,0,0,1.11,1l27,15.58,4.5,2.58a3.82,3.82,0,0,0,2.18.5,3.68,3.68,0,0,0,.75-.14L666,365.14a3.53,3.53,0,0,0-.88-.7l-20.59-11.89-10.88-6.26a3.88,3.88,0,0,0-1-.4Z"/></clipPath><linearGradient id="d" x1="-40.09" y1="719.21" x2="-39.5" y2="719.21" gradientTransform="matrix(142.41, -105.22, -105.22, -142.41, 81975.12, 98618.96)" gradientUnits="userSpaceOnUse"><stop offset="0.57" stop-color="#3e863d"/><stop offset="0.72" stop-color="#619857"/><stop offset="1" stop-color="#76ac64"/></linearGradient><clipPath id="e"><path class="a" d="M631.36,345.81a3.82,3.82,0,0,0-1.51.48l-31.35,18.1L632.3,426a3.88,3.88,0,0,0,1.35-.47l31.44-18.16a3.81,3.81,0,0,0,1.84-2.59l-34.47-58.87a3.92,3.92,0,0,0-.76-.08l-.32,0"/></clipPath><linearGradient id="f" x1="-42.68" y1="722.97" x2="-42.16" y2="722.97" gradientTransform="matrix(129.89, 0, 0, -129.89, 6142.45, 94291.48)" gradientUnits="userSpaceOnUse"><stop offset="0.16" stop-color="#6bbf47"/><stop offset="0.38" stop-color="#79b461"/><stop offset="0.47" stop-color="#75ac64"/><stop offset="0.7" stop-color="#659e5a"/><stop offset="0.9" stop-color="#3e863d"/></linearGradient><linearGradient id="g" x1="-668.69" y1="2434.65" x2="-582.04" y2="2360.1" gradientTransform="matrix(0.56, 0, 0, -0.57, 439.12, 1753.84)" gradientUnits="userSpaceOnUse"><stop offset="0" stop-color="#5a9fd4"/><stop offset="1" stop-color="#306998"/></linearGradient><linearGradient id="h" x1="-548.9" y1="2312.91" x2="-580.5" y2="2357.63" gradientTransform="matrix(0.56, 0, 0, -0.57, 439.12, 1753.84)" gradientUnits="userSpaceOnUse"><stop offset="0" stop-color="#ffd43b"/><stop offset="1" stop-color="#ffe873"/></linearGradient><radialGradient id="i" cx="4250.67" cy="939.04" r="23.51" gradientTransform="matrix(0, -0.24, -1.05, 0, 1099.67, 1491.39)" gradientUnits="userSpaceOnUse"><stop offset="0" stop-color="#b8b8b8" stop-opacity="0.5"/><stop offset="1" stop-color="#7f7f7f" stop-opacity="0"/></radialGradient></defs><path class="b" d="M246.07,91.69s61.73,77.22,285.53,84.95S763.11,338.81,763.11,338.81s23.15,254.85-92.6,278S246.07,640,246.07,640s-131.19-15.45-177.5-46.34S6.84,493.27,6.84,493.27-24,338.81,45.42,107.13,246.07,91.69,246.07,91.69Z"/><line class="c" x1="389.6" y1="333.9" x2="389.6" y2="231.9"/><polyline class="c" points="171.03 188.19 171.03 304.76 265.74 304.76"/><line class="c" x1="304.6" y1="417.28" x2="131.37" y2="417.28"/><polyline class="c" points="309.46 458.56 200.17 458.56 200.17 545.99"/><polyline class="c" points="334.55 456.95 334.55 574.32 426.83 574.58"/><polyline class="c" points="387.17 446.42 387.17 524.13 596.83 523.99"/><polyline class="c" points="522.36 245.67 522.36 354.95 391.22 354.95"/><line class="c" x1="634.88" y1="388.95" x2="429.26" y2="388.95"/><line class="c" x1="428.45" y1="423.76" x2="533.69" y2="423.76"/><circle class="c" cx="547.45" cy="423.76" r="12.95"/><circle class="c" cx="434.93" cy="574.32" r="12.95"/><circle class="c" cx="389.6" cy="215.71" r="12.95"/><path class="d" d="M438.78,388.17a51.7,51.7,0,0,0-1.94-13.88l15.54-9-13-22.51-16,9a50.54,50.54,0,0,0-24.34-13.87V319.81H372.83v18.13c-9.89,2.39-17.12,7.24-23.62,13.87l-15.28-9-12.87,22.51,15,9c-1.22,4.42-2.41,8.29-2.41,13.11v7.36h10v14.54a31.25,31.25,0,0,1,9.76,5.33l3.18-1.7a38.37,38.37,0,0,1-8.83-22.82,39.45,39.45,0,1,1,27.06,35l-11.14,6.38a28.11,28.11,0,0,1,0,10.66l12.82,7.34-2.38,4.13,6.44,2.79h18.09v-18a50.08,50.08,0,0,0,24.75-13.87l15.74,9L452.27,411l-15.48-9A52.14,52.14,0,0,0,438.78,388.17Z"/><path class="e" d="M386.8,349.19a39,39,0,1,0,39,39A39,39,0,0,0,386.8,349.19Zm0,68.22a29.47,29.47,0,0,1-6.49-.72l-19.5-15.11a29.24,29.24,0,1,1,26,15.83Z"/><circle class="f" cx="386.8" cy="388.18" r="29.24"/><circle class="f" cx="302.34" cy="332.95" r="19.49"/><path class="g" d="M302.34,303.71A29.24,29.24,0,1,0,331.57,333,29.24,29.24,0,0,0,302.34,303.71Zm0,48.73A19.49,19.49,0,1,1,321.83,333,19.49,19.49,0,0,1,302.34,352.44Z"/><path class="e" d="M321.22,365.32l13-22.51,6.25,3.61,3.16-5.23a39.42,39.42,0,0,0,.94-8.54,40.71,40.71,0,0,0-.94-8.68l13-7.46-13-22.46-13.57,7.56c-4.36-3.94-15.6-8.83-15.6-8.83V277.72H288.26v15.06c-3.24,1.85-10.25,4.91-14.62,8.85l-12.85-7.55L247.9,316.59,261,324.11a42.29,42.29,0,0,0-.91,8.84,42.8,42.8,0,0,0,.95,8.83l-13,7.53,13,22.5,12.64-7.54c4.36,3.94,11.37,7,15,8.85v15h25.42V371.89h11l2-3.2Zm-18.88-3.13A29.24,29.24,0,1,1,331.57,333,29.24,29.24,0,0,1,302.34,362.19Z"/><path d="M317.42,391.88h-32.5V375.15l-.65-.33a72.12,72.12,0,0,1-11.14-6.55l-13.41,8.08-16.29-28.21,13.86-8a45.37,45.37,0,0,1-.59-7.19,47.12,47.12,0,0,1,.55-7.18l-13.94-8,16.11-28.2,13.69,8.07a72.94,72.94,0,0,1,11.16-6.57l.65-.32V274.81h32.5v15.6a42.54,42.54,0,0,1,13,7.28l14.46-8,16.17,28-13.95,7.93a49.06,49.06,0,0,1,.44,7,38.94,38.94,0,0,1-1.15,8.48l-.16.74-6.33-1.35.16-.75a33.2,33.2,0,0,0,1-7.12,37.43,37.43,0,0,0-.72-8l-.49-2.31,12.34-7-9.74-16.89-12.9,7.14L327.81,304a35.68,35.68,0,0,0-14.57-8.12l-2.07-.67V281.47H291.59v13.37l-1.72.91c-.73.39-1.6.83-2.52,1.29-3.58,1.8-8.48,4.26-11.69,7.13l-1.77,1.6-12.13-7.1L252,315.56l12.46,7.1L264,325a39.74,39.74,0,0,0-.84,8.18,38.73,38.73,0,0,0,.9,8.18l.49,2.3-12.37,7.1L262,367.61l11.87-7.1,1.79,1.62c3.21,2.87,8.11,5.33,11.69,7.13.92.46,1.79.9,2.52,1.29l1.72.91v14.17h19.58V371.89h6.25v20Z"/><path d="M402,460.21H379.5v-6.66h15.83V436.4l2.47-.62a50.13,50.13,0,0,0,23.3-13.06l1.75-1.78,15.3,8.65,10-17-14.94-8.64.67-2.42a47.48,47.48,0,0,0,.06-26.18l-.68-2.43,15-8.64-9.86-17-15.56,8.65-1.74-1.77A49.52,49.52,0,0,0,397.8,341l-2.47-.62V323.56h-20v16.85l-2.46.62c-8.29,2.09-15.28,6.24-22,13.07l-1.79,1.81-14.62-8.61-9.66,16.93,15.12,8.66-.67,2.39a46.4,46.4,0,0,0-2.2,12.44h-5.62a45.73,45.73,0,0,1,1.74-11.7l-16.11-9.32,15.89-28.2,15.71,9.39a50.26,50.26,0,0,1,20.43-12.29V317.31h32.5v18.13s16.15,6.7,22.25,12.33l16.76-9.33,16.2,28.06-16.23,9.37a53.16,53.16,0,0,1-.05,24.62l16.16,9.37-16.38,28.07-16.47-9.34a54.6,54.6,0,0,1-22.24,12.32V459.8H402Z"/><path d="M302.34,365.42A32.47,32.47,0,1,1,334.81,333a33.27,33.27,0,0,1-.2,3.6l-6.43-.71a25.32,25.32,0,0,0,.16-2.89,26,26,0,1,0-11.56,21.62l3.6,5.38A32.31,32.31,0,0,1,302.34,365.42Z"/><path d="M387,430.59v-6.47a35.7,35.7,0,1,0-35.76-35.57h-6.47a42.22,42.22,0,1,1,42.23,42Z"/><path d="M302.34,355.68A22.73,22.73,0,1,1,325.06,333,22.76,22.76,0,0,1,302.34,355.68Zm0-39A16.26,16.26,0,1,0,318.59,333,16.28,16.28,0,0,0,302.34,316.69Z"/><path d="M386.8,420.65a32.27,32.27,0,0,1-7.21-.81l1.43-6.31a26,26,0,1,0-20.22-25.36,25.69,25.69,0,0,0,2.89,11.93l-5.75,3a32.47,32.47,0,1,1,28.86,17.58Z"/><rect x="369.5" y="382.3" width="32.91" height="6.67"/><rect x="375.75" y="391.88" width="20" height="6.67"/><rect x="288.26" y="330.22" width="6.67" height="6.67"/><rect x="298.26" y="330.22" width="6.67" height="6.67"/><rect x="307.84" y="330.22" width="6.67" height="6.67"/><path class="d" d="M358.32,394.7c.09.39.19.77.3,1.16C358.51,395.47,358.41,395.09,358.32,394.7Z"/><path class="d" d="M359.23,397.83c.13.37.26.74.4,1.1C359.49,398.57,359.36,398.2,359.23,397.83Z"/><path class="d" d="M360.85,401.61c-.12-.23-.23-.48-.35-.72.11.23.2.47.31.69Z"/><path class="d" d="M382.64,417.08c.33.05.66.12,1,.16C383.3,417.2,383,417.13,382.64,417.08Z"/><path class="d" d="M357.76,391.49c0,.35.11.68.16,1C357.87,392.18,357.8,391.84,357.76,391.49Z"/><path class="d" d="M380.59,416.74l-.33-.09.05,0Z"/><circle class="f" cx="334.82" cy="436.9" r="6.5"/><path class="e" d="M334.82,420.66a16.25,16.25,0,1,0,16.25,16.24A16.24,16.24,0,0,0,334.82,420.66Zm0,22.74a6.5,6.5,0,1,1,6.5-6.5A6.49,6.49,0,0,1,334.82,443.4Z"/><path class="g" d="M364.06,436.9a29.27,29.27,0,0,0-.51-5.33l12.72-7.34-9.75-16.88-13.16,7.34a33.84,33.84,0,0,0-9.27-5.32V394.8h-20v14.57a27.75,27.75,0,0,0-8.65,5.32l-12.52-7.34-9.64,16.88L306,431.57a28.71,28.71,0,0,0,0,10.67l-12.71,7.34,9.75,16.88,12.32-7.35a25.66,25.66,0,0,0,9.06,5.33V479h19.17V464.44a30.9,30.9,0,0,0,9.69-5.33l12.94,7.35,9.86-16.88-12.66-7.34A30.31,30.31,0,0,0,364.06,436.9Zm-29.24,16.25a16.25,16.25,0,1,1,16.25-16.25A16.25,16.25,0,0,1,334.82,453.15Z"/><path d="M346.59,483.13H320.34V466.81a32.86,32.86,0,0,1-5.52-3.48L302,471.23l-13-22.61,13.56-7.87a31.1,31.1,0,0,1-.23-3.65,33.15,33.15,0,0,1,.19-3.63l-13.67-7.87L301.57,403l13.22,7.9a34.06,34.06,0,0,1,5.55-3.5V391.88h26.25V407.2a63.47,63.47,0,0,1,6.94,3.64L367.74,403l12.95,22.43-13.61,7.86a32,32,0,0,1,.22,3.63,27.8,27.8,0,0,1-.27,3.65l13.53,7.86-13.13,22.43L353.51,463a38.49,38.49,0,0,1-6.92,3.62v16.11h0ZM327,476.46h12.92V462.25l2.34-.81c1.53-.62,6.2-2.49,8.89-4.78l1.72-1.48,12.19,6.89,6.64-11.32-11.81-6.86.41-2.24a26.46,26.46,0,0,0,.52-4.75,25.46,25.46,0,0,0-.45-4.74l-.42-2.25,11.9-6.87-6.54-11.32-12.46,6.89-1.7-1.46c-2.69-2.3-7.36-4.17-8.89-4.78l-1.92-.82v-13H326.59v13l-1.77.82a27.16,27.16,0,0,0-7.6,4.78l-1.77,1.51-11.51-6.84L297.6,423l12,6.88-.42,2.26a26.1,26.1,0,0,0,.07,9.49l.42,2.24-11.88,6.87L304.26,462l11.17-6.84,1.78,1.53a27.81,27.81,0,0,0,7.61,4.78l2.18.81v14.21Z"/><path d="M334.82,456.38A19.48,19.48,0,1,1,354.3,436.9,19.5,19.5,0,0,1,334.82,456.38Zm0-32.48a13,13,0,1,0,13,13A13,13,0,0,0,334.82,423.9Z"/><path d="M334.82,446.63a9.73,9.73,0,1,1,9.73-9.73A9.74,9.74,0,0,1,334.82,446.63Zm0-13a3.27,3.27,0,1,0,3.26,3.26A3.26,3.26,0,0,0,334.82,433.64Z"/><path class="h" d="M562.63,251.7c-4.92,2.57-30.45,13.07-35.89,15.9s-8.45,2.81-12.75.75-31.46-13-36.35-15.36c-2.45-1.17-3.73-2.16-3.73-3.09v-9.33s35.36-7.7,41.08-9.75,7.69-2.13,12.54-.35,33.92,7,38.72,8.79v9.2C566.25,249.38,565.14,250.39,562.63,251.7Z"/><path class="i" d="M562.62,242.37c-4.93,2.56-30.45,13.06-35.88,15.89s-8.46,2.81-12.75.75-31.45-13-36.35-15.36-5-4-.18-5.83,31.81-12.48,37.52-14.53,7.69-2.12,12.55-.34,30.23,11.88,35,13.64S567.55,239.8,562.62,242.37Z"/><path class="h" d="M562.63,236.48c-4.92,2.57-30.45,13.07-35.89,15.9s-8.45,2.81-12.75.75-31.46-13-36.35-15.36c-2.45-1.17-3.73-2.15-3.73-3.09v-9.33s35.36-7.7,41.08-9.75,7.69-2.12,12.54-.34,33.92,7,38.72,8.78v9.2C566.25,234.16,565.14,235.17,562.63,236.48Z"/><path class="i" d="M562.62,227.15c-4.93,2.56-30.45,13.06-35.88,15.89s-8.46,2.81-12.75.76-31.45-13-36.35-15.37-5-3.94-.18-5.83,31.81-12.48,37.52-14.53,7.69-2.12,12.55-.34,30.23,11.88,35,13.64S567.55,224.58,562.62,227.15Z"/><path class="h" d="M562.63,220.7c-4.92,2.57-30.45,13.07-35.89,15.9s-8.45,2.8-12.75.75-31.46-13-36.35-15.36c-2.45-1.17-3.73-2.16-3.73-3.09v-9.34s35.36-7.69,41.08-9.74,7.69-2.13,12.54-.35,33.92,7,38.72,8.79v9.2C566.25,218.38,565.14,219.39,562.63,220.7Z"/><path class="i" d="M562.62,211.36c-4.93,2.57-30.45,13.07-35.88,15.9s-8.46,2.8-12.75.75-31.45-13-36.35-15.36-5-4-.19-5.83,31.82-12.48,37.53-14.53,7.69-2.12,12.55-.34,30.23,11.88,35,13.64S567.55,208.8,562.62,211.36Z"/><polygon class="f" points="532.17 202.38 524.17 203.21 522.38 207.51 519.49 202.71 510.25 201.88 517.14 199.39 515.08 195.57 521.53 198.1 527.62 196.11 525.97 200.05 532.17 202.38"/><polygon class="f" points="521.9 223.28 506.97 217.09 528.37 213.81 521.9 223.28"/><ellipse class="f" cx="501.2" cy="209.2" rx="11.44" ry="4.43"/><polygon class="j" points="541.65 203.55 554.31 208.56 541.66 213.56 541.65 203.55"/><polygon class="k" points="527.65 209.09 541.66 203.55 541.67 213.56 540.3 214.09 527.65 209.09"/><g class="l"><path class="m" d="M698.75,361.36l-88.59-43.43L564.74,410.6,653.32,454Z"/></g><g class="n"><path class="o" d="M559,374.2l62.56,84.66,82.72-61.12-62.55-84.66Z"/></g><g class="p"><path class="q" d="M598.72,346.1v80H667v-80Z"/></g><polygon class="r" points="212.5 213.21 212.5 166.25 171.53 142.77 130.56 166.25 130.56 213.21 171.53 236.69 212.5 213.21"/><path class="f" d="M191.19,165.69a5.39,5.39,0,0,0-6.72,5.23v24.31l-23.76-26.57-.28-.33a8.78,8.78,0,0,0-7.23-2.81,5.39,5.39,0,0,0-5.39,5.4v36.4a5.54,5.54,0,0,0,4.05,5.48,5.39,5.39,0,0,0,6.73-5.23V183.08l24.32,27.23.24.3a9.06,9.06,0,0,0,6.71,2.36,5.39,5.39,0,0,0,5.39-5.4v-36.4A5.55,5.55,0,0,0,191.19,165.69Z"/><path class="s" d="M108.64,367.75a61,61,0,0,0-10.25.88c-9.09,1.63-10.74,5-10.74,11.29v8.22h21.86v3.24H79.9c-6.26,0-11.74,3.76-13.45,10.91-2,8.2-2.07,13.32,0,21.88,1.53,6.38,5.18,10.92,11.44,10.92h6.53v-9.95A13.83,13.83,0,0,1,98,411.61h21.8a10.88,10.88,0,0,0,10.74-11V379.92c0-5.89-4.91-10.3-10.74-11.29A65.91,65.91,0,0,0,108.64,367.75Zm-11.81,7a4.14,4.14,0,1,1-4.07,4.15A4.12,4.12,0,0,1,96.83,374.73Z"/><path class="t" d="M133,391.38v9.71a13.92,13.92,0,0,1-13.56,13.76H97.78a11.12,11.12,0,0,0-10.94,11v20.67c0,5.88,5.16,9.34,10.94,11a36.88,36.88,0,0,0,21.84,0c5.51-1.58,10.94-4.77,10.94-11v-8.22H108.7v-3.24h32.4c6.28,0,8.62-4.36,10.8-10.92,2.26-6.74,2.17-13.23,0-21.88-1.55-6.23-4.51-10.91-10.8-10.91Zm-11.75,52.23a4.14,4.14,0,1,1-4.07,4.13A4.1,4.1,0,0,1,121.24,443.61Z"/><ellipse class="u" cx="109.29" cy="471.45" rx="29.09" ry="5.64"/><path class="v" d="M609.78,548.63c.49-4.11.34-4.71,3.4-4l.78.07a18.08,18.08,0,0,0,7.27-1.22c3.89-1.81,6.2-4.82,2.36-4-8.75,1.81-9.39-1.16-9.39-1.16,9.25-13.72,13.12-31.13,9.77-35.39-9.09-11.63-24.84-6.13-25.1-6h-.09a30.42,30.42,0,0,0-5.84-.6,14.52,14.52,0,0,0-9.25,2.76s-28.09-11.57-26.79,14.56c.28,5.56,8,42.09,17.14,31,3.36-4,6.6-7.45,6.6-7.45a8.44,8.44,0,0,0,5.55,1.41l.16-.13a5.89,5.89,0,0,0,.06,1.57c-2.36,2.64-1.66,3.1-6.39,4.08s-2,2.73-.14,3.19c2.23.56,7.37,1.35,10.85-3.51l-.14.55c.92.74.86,5.33,1,8.61s.35,6.33,1,8.13,1.45,6.45,7.66,5.15c5.18-1.11,9.15-2.71,9.51-17.59"/><path class="w" d="M623.56,539.52c-8.75,1.8-9.38-1.16-9.38-1.16,9.24-13.72,13.11-31.13,9.77-35.39-9.1-11.63-24.85-6.13-25.11-6l-.08,0a31,31,0,0,0-5.84-.61,14.44,14.44,0,0,0-9.25,2.77s-28.1-11.58-26.79,14.55c.28,5.56,8,42.09,17.14,31,3.38-4.06,6.62-7.48,6.62-7.48a8.45,8.45,0,0,0,5.55,1.42l.16-.13a6.36,6.36,0,0,0,.06,1.57c-2.36,2.64-1.66,3.1-6.39,4.07s-2,2.74-.14,3.2c2.23.56,7.37,1.35,10.85-3.52l-.14.56c.92.74,1.57,4.82,1.46,8.52s-.18,6.24.55,8.22,1.45,6.45,7.66,5.15c5.19-1.11,7.87-4,8.25-8.8.27-3.41.87-2.91.91-6l.48-1.45c.56-4.63.09-6.13,3.29-5.43l.78.07a17.59,17.59,0,0,0,7.23-1.22c3.9-1.8,6.2-4.82,2.37-4Z"/><path class="x" d="M591.1,542.06c-.24,8.62.06,17.3.9,19.38s2.65,6.21,8.86,4.89c5.19-1.12,7.08-3.27,7.9-8l1.91-15.19m-27-44.26s-28.11-11.49-26.8,14.64c.28,5.56,8,42.09,17.14,31,3.35-4,6.38-7.19,6.38-7.19m18.47-40.58c-1,.31,15.64-6.07,25.08,6,3.33,4.26-.53,21.67-9.78,35.39"/><path class="y" d="M614.15,538.14s.6,3,9.38,1.15c3.84-.79,1.53,2.23-2.36,4-3.19,1.48-10.35,1.86-10.47-.18-.3-5.29,3.77-3.68,3.48-5s-2.09-2.37-3.29-5.28c-1-2.55-14.42-22.08,3.7-19.18.67-.14-4.72-17.26-21.68-17.51S576.49,517,576.49,517"/><path class="z" d="M586.35,540c-2.36,2.64-1.66,3.1-6.39,4.07s-2,2.74-.14,3.2c2.23.56,7.37,1.35,10.85-3.52,1.06-1.48,0-3.85-1.46-4.45a2.15,2.15,0,0,0-2.85.7Z"/><path class="x" d="M586.2,539.9c-.24-1.55.51-3.4,1.31-5.56,1.21-3.24,4-6.48,1.76-16.76-1.65-7.67-12.78-1.6-12.78-.56a51.29,51.29,0,0,1-.18,10.19c-.9,6.42,4.09,11.86,9.83,11.3"/><path class="aa" d="M583.55,516.86c0,.36.65,1.31,1.56,1.43a1.69,1.69,0,0,0,1.75-1c0-.35-.66-.74-1.57-.87S583.6,516.51,583.55,516.86Z"/><path class="ab" d="M611.3,516.14c.05.35-.65,1.3-1.56,1.43a1.66,1.66,0,0,1-1.74-1c0-.36.65-.74,1.56-.87S611.26,515.79,611.3,516.14Z"/><path class="x" d="M614.56,513.68c.15,2.79-.6,4.68-.7,7.65-.14,4.3,2.06,9.23-1.25,14.17"/><path class="ac" d="M231.15,527a33.05,33.05,0,0,1-4.21,7.36,39.22,39.22,0,1,0-56.42,54.48,14.75,14.75,0,0,0,1.62,1.54l1.46,1.3A39.2,39.2,0,0,0,238,564.44C239.09,554.64,236.09,542,231.15,527Zm-53.34,63.79a3.34,3.34,0,1,1-.49-4.7A3.42,3.42,0,0,1,177.81,590.75ZM230.91,579c-9.63,12.87-30.36,8.5-43.55,9.14,0,0-2.35.17-4.7.49,0,0,.9-.4,2-.81C194,584.59,198.37,584,204,581c10.6-5.42,21.2-17.32,23.31-29.63-4,11.82-16.35,22-27.52,26.15-7.69,2.83-21.54,5.59-21.54,5.59l-.56-.33c-9.39-4.61-9.72-25,7.44-31.57C192.7,548.33,199.83,550,208,548c8.66-2,18.7-8.5,22.75-17C235.28,544.68,240.79,565.89,230.91,579Z"/><path class="ac" d="M228.81,586.94a39.08,39.08,0,0,0,9.14-22.5"/><path class="f" d="M230.91,579c-9.63,12.87-30.36,8.5-43.55,9.14,0,0-2.35.17-4.7.49,0,0,.9-.4,2-.81C194,584.59,198.37,584,204,581c10.6-5.42,21.2-17.32,23.31-29.63-4,11.82-16.35,22-27.52,26.15-7.69,2.83-21.54,5.59-21.54,5.59l-.56-.33c-9.39-4.61-9.72-25,7.44-31.57C192.7,548.33,199.83,550,208,548c8.66-2,18.7-8.5,22.75-17C235.28,544.68,240.79,565.89,230.91,579Z"/><path class="f" d="M177.81,590.75a3.34,3.34,0,1,1-.49-4.7A3.42,3.42,0,0,1,177.81,590.75Z"/></svg>
