<svg xmlns="http://www.w3.org/2000/svg" width="124" height="88.4" viewBox="0 0 124 88.4">
	<defs>
		<style>
			.cls-1{fill:#a9dbf5;}.cls-2{fill:#88c3e0;}.cls-3{fill:#43809f;}.cls-4{fill:#29cef6;}.cls-5{fill:#ffc328;}.cls-6{fill:#f78e36;}.cls-7{fill:#3a7190;}.cls-8{fill:#f3f3f3;}
		</style>
	</defs>
	<title>web-logo</title>
	<path class="cls-1" d="M116.51,88.4H7.49A7.49,7.49,0,0,1,0,80.91V15.4H124V80.91A7.49,7.49,0,0,1,116.51,88.4Z"/>
	<path class="cls-2" d="M116.52,15.4v73A7.49,7.49,0,0,0,124,80.91V15.4Z"/>
	<path class="cls-3"
		  d="M25.16,38.86a1.82,1.82,0,0,0-2.57,0L11.34,50.11a1.82,1.82,0,0,0,0,2.57l11.1,11.09a1.78,1.78,0,0,0,1.28.53A1.82,1.82,0,0,0,25,61.2L15.2,51.39l10-10A1.82,1.82,0,0,0,25.16,38.86Z"/>
	<path class="cls-3"
		  d="M64.06,50.11,52.82,38.86a1.82,1.82,0,1,0-2.57,2.57l10,10L50.4,61.2a1.82,1.82,0,0,0,0,2.57,1.78,1.78,0,0,0,1.28.53A1.8,1.8,0,0,0,53,63.77L64.06,52.68A1.82,1.82,0,0,0,64.06,50.11Z"/>
	<path class="cls-3"
		  d="M45,32.11a1.8,1.8,0,0,0-2.34,1l-13.3,35a1.82,1.82,0,0,0,3.4,1.29l13.3-35A1.82,1.82,0,0,0,45,32.11Z"/>
	<path class="cls-4" d="M93.56,38.93H81.83a3.75,3.75,0,0,1,0-7.49H93.56a3.75,3.75,0,0,1,0,7.49Z"/>
	<path class="cls-5" d="M112.77,53.9H81.83a3.75,3.75,0,0,1,0-7.49h30.94a3.75,3.75,0,0,1,0,7.49Z"/>
	<path class="cls-6" d="M103.58,68.87H81.83a3.75,3.75,0,0,1,0-7.49h21.75a3.75,3.75,0,0,1,0,7.49Z"/>
	<path class="cls-3" d="M124,18H0V7.49A7.49,7.49,0,0,1,7.49,0h109A7.49,7.49,0,0,1,124,7.49Z"/>
	<path class="cls-7" d="M116.52,0V18H124V7.49A7.48,7.48,0,0,0,116.52,0Z"/>
	<circle class="cls-4" cx="11.98" cy="9.11" r="3.74"/>
	<circle class="cls-8" cx="26.49" cy="9.11" r="3.74"/>
	<circle class="cls-6" cx="41" cy="9.11" r="3.74"/>
</svg>