<svg xmlns="http://www.w3.org/2000/svg" xmlns:xlink="http://www.w3.org/1999/xlink" viewBox="0 0 1500 1778"><defs><linearGradient id="a" x1="18.53" x2="18.54" y1="1641.71" y2="1642.04" gradientTransform="matrix(34.91 0 0 -92.07 511.35 152042.19)" gradientUnits="userSpaceOnUse"><stop offset="0" stop-color="#ffeed7"/><stop offset="1" stop-color="#bdbfc2"/></linearGradient><linearGradient id="b" x1="11.53" x2="11.5" y1="1655.23" y2="1654.83" gradientTransform="matrix(60.17 0 0 -45.77 436.95 76555.65)" gradientUnits="userSpaceOnUse"><stop offset="0" stop-color="#fff" stop-opacity=".8"/><stop offset="1" stop-color="#fff" stop-opacity="0"/></linearGradient><linearGradient xlink:href="#a" id="c" x1="35.44" x2="35.43" y1="1670.43" y2="1670.79" gradientTransform="matrix(19.27 0 0 -29.59 438.12 50239.07)"/><linearGradient xlink:href="#a" id="d" x1="25.11" x2="25.11" y1="1664.46" y2="1664.79" gradientTransform="matrix(26.64 0 0 -34.35 466.98 57992.79)"/><linearGradient id="e" x1="92.51" x2="92.47" y1="1749.27" y2="1748.86" gradientTransform="matrix(7.14 0 0 -10.49 474.39 19158.09)" gradientUnits="userSpaceOnUse"><stop offset="0" stop-color="#fff" stop-opacity=".65"/><stop offset="1" stop-color="#fff" stop-opacity="0"/></linearGradient><linearGradient xlink:href="#e" id="f" x1="124.8" x2="124.84" y1="1771.98" y2="1771.58" gradientTransform="matrix(5.42 0 0 -8.84 444.44 16475.49)"/><linearGradient xlink:href="#a" id="g" x1="6.34" x2="6.34" y1="1635.09" y2="1635.31" gradientTransform="matrix(113.16 0 0 -171.24 413.62 280877.35)"/><linearGradient xlink:href="#a" id="h" x1="14.51" x2="14.46" y1="1640.4" y2="1640.74" gradientTransform="matrix(49.03 0 0 -102.17 399.13 168491.39)"/><linearGradient xlink:href="#b" id="i" x1="8.66" x2="8.67" y1="1647.75" y2="1647.39" gradientTransform="matrix(81.27 0 0 -66.21 425.02 109943.53)"/><linearGradient xlink:href="#e" id="j" x1="13.77" x2="13.77" y1="1661.2" y2="1660.95" gradientTransform="matrix(49.95 0 0 -38.66 441.83 65054.46)"/><linearGradient xlink:href="#e" id="k" x1="21.77" x2="21.77" y1="1641.07" y2="1640.71" gradientTransform="matrix(32.62 0 0 -99.72 392.59 164487.48)"/><linearGradient xlink:href="#e" id="l" x1="19.09" x2="19.09" y1="1640.7" y2="1640.39" gradientTransform="matrix(33.57 0 0 -102.26 522.7 168605.55)"/><linearGradient id="m" x1="8.81" x2="8.75" y1="1644.17" y2="1643.95" gradientTransform="matrix(84.09 0 0 -82.05 359.82 135795.26)" gradientUnits="userSpaceOnUse"><stop offset="0" stop-color="#ffa63f"/><stop offset="1" stop-color="#ff0"/></linearGradient><linearGradient xlink:href="#a" id="n" x1="17.11" x2="17.09" y1="1664.22" y2="1665.16" gradientTransform="matrix(37.77 0 0 -36.24 515.08 61194.59)"/><linearGradient xlink:href="#m" id="o" x1="8.35" x2="8.51" y1="1643.34" y2="1643.09" gradientTransform="matrix(78.66 0 0 -86.74 499.23 143419.88)"/><linearGradient xlink:href="#e" id="p" x1="15.2" x2="15.15" y1="1648.72" y2="1648.34" gradientTransform="matrix(42.98 0 0 -65.27 506.63 108475.06)"/><linearGradient xlink:href="#e" id="q" x1="12.8" x2="12.82" y1="1651.21" y2="1650.75" gradientTransform="matrix(56.58 0 0 -58.05 375.2 96722.28)"/><linearGradient xlink:href="#e" id="r" x1="29.08" x2="29.14" y1="1694.52" y2="1694.12" gradientTransform="matrix(21.96 0 0 -20.14 520.65 34990.4)"/><linearGradient xlink:href="#m" id="s" x1="11.94" x2="11.94" y1="1661.2" y2="1660.83" gradientTransform="matrix(57.99 0 0 -38.37 436.73 64559.93)"/><linearGradient xlink:href="#e" id="t" x1="23.84" x2="23.84" y1="1698.34" y2="1697.92" gradientTransform="matrix(28.51 0 0 -18.18 447.7 31687.82)"/><linearGradient id="v" x1="-9.13" x2="-8.49" y1="2103.67" y2="2103.67" gradientTransform="scale(-115.3 115.3)rotate(63.888 1669.469 1062.564)" gradientUnits="userSpaceOnUse"><stop offset=".3" stop-color="#3e863d"/><stop offset=".5" stop-color="#55934f"/><stop offset=".8" stop-color="#5aad45"/></linearGradient><linearGradient id="x" x1="3.61" x2="4.03" y1="2114.87" y2="2114.87" gradientTransform="scale(177.06 -177.06)rotate(36.459 3227.45 1051.072)" gradientUnits="userSpaceOnUse"><stop offset=".57" stop-color="#3e863d"/><stop offset=".72" stop-color="#619857"/><stop offset="1" stop-color="#76ac64"/></linearGradient><linearGradient id="z" x1="-.32" x2=".06" y1="2118.47" y2="2118.47" gradientTransform="matrix(129.89 0 0 -129.89 471.37 276759.29)" gradientUnits="userSpaceOnUse"><stop offset=".16" stop-color="#6bbf47"/><stop offset=".38" stop-color="#79b461"/><stop offset=".47" stop-color="#75ac64"/><stop offset=".7" stop-color="#659e5a"/><stop offset=".9" stop-color="#3e863d"/></linearGradient><linearGradient id="aa" x1="-734.36" x2="-672.06" y1="4146.49" y2="4092.89" gradientTransform="matrix(.56 0 0 -.57 458.37 3939.71)" gradientUnits="userSpaceOnUse"><stop offset="0" stop-color="#5a9fd4"/><stop offset="1" stop-color="#306998"/></linearGradient><linearGradient id="ab" x1="-648.23" x2="-670.96" y1="4058.96" y2="4091.11" gradientTransform="matrix(.56 0 0 -.57 458.37 3939.71)" gradientUnits="userSpaceOnUse"><stop offset="0" stop-color="#ffd43b"/><stop offset="1" stop-color="#ffe873"/></linearGradient><clipPath id="u"><path d="m452.83 1566.82-22.62 13a2.73 2.73 0 0 0-1.37 2.37v26.13a2.73 2.73 0 0 0 1.37 2.36l22.62 13.07a2.77 2.77 0 0 0 2.73 0l22.62-13.07a2.74 2.74 0 0 0 1.36-2.36v-26.13a2.73 2.73 0 0 0-1.37-2.37l-22.61-13a2.74 2.74 0 0 0-2.74 0" class="a"/></clipPath><clipPath id="w"><path d="M429.42 1610a2.7 2.7 0 0 0 .81.7l19.38 11.2 3.23 1.86a2.76 2.76 0 0 0 1.58.35 2.5 2.5 0 0 0 .54-.09l23.83-43.65a2.6 2.6 0 0 0-.63-.51l-14.8-8.54-7.82-4.51a3 3 0 0 0-.71-.28Z" class="a"/></clipPath><clipPath id="y"><path d="M453.92 1566.49a2.85 2.85 0 0 0-1.09.35l-22.54 13 24.31 44.26a2.9 2.9 0 0 0 1-.33l22.6-13.06a2.75 2.75 0 0 0 1.32-1.86l-24.78-42.33a3.3 3.3 0 0 0-.55 0h-.22" class="a"/></clipPath><radialGradient id="ac" cx="5164.46" cy="2403.96" r="16.9" gradientTransform="matrix(0 -.24 -1.05 0 2613.96 2896.02)" gradientUnits="userSpaceOnUse"><stop offset="0" stop-color="#b8b8b8" stop-opacity=".5"/><stop offset="1" stop-color="#7f7f7f" stop-opacity="0"/></radialGradient><style>.a,.bk,.ce,.o{fill:none}.b{fill:#d6eff9}.f{fill:#804e30}.j{fill:#1d2328}.m{fill:#28d2e4}.n{fill:#22313f}.o{stroke:#77c1e8;stroke-width:8px}.bk,.o{stroke-miterlimit:10}.t{fill:#fff}.w{fill:#194f82}.ba{fill:#88acb5}.bb{fill:#a7cbcf}.bc{fill:#e5fafc}.bg{fill:#ffdc64}.bh{fill:#ffc850}.bi{fill:#faebc8}.bj{fill:#f5dcb4}.bk{stroke:#f40082;stroke-width:10px}.bl{fill:#e2804f}.bm{fill:#d4e4ac}.bn{fill:#f2bf7e}.bo{fill:#a42122}.bp{fill:#d82f27}.ce{stroke:#fff;stroke-linecap:round;stroke-linejoin:round;stroke-width:1.79px}.cj{fill:#6db33f}.ck{fill:#ecf0f1}.cl{fill:#545e73}.cs{fill:#535d73}.ct{fill:#687492}.cw{fill:#ec6630}</style></defs><path d="M264.39 58.29c78.47-1.76 117.82-75.16 176.18-54.69 6.92 2.43 22.54 9.13 44 37.69 67.37 89.41 94.35 262.71 24.27 314.86-49.58 36.86-94.27-26.72-227.57-12.57-120.79 12.82-159.92 73.08-215.08 45.09C-3.46 353.32-.23 227.25.12 213.5 2.34 126.7 47.25 16.07 116.1 3.6 172.83-6.67 188.94 60 264.39 58.29M1211.38 749.81c49.46-3.95 99.3-4.91 129.15-40.59 8.06-9.64 9.87-16.08 21.63-27.06 2.61-2.43 48.07-43.81 88.5-29.77 35.17 12.21 41.42 69 47.2 117.72 2 16.62 11.27 105.06-33.43 187.4-15.94 29.35-30.39 42.57-43.27 50.74-25.33 16.08-51 16.73-65.56 16.92-145.84 1.88-220-5.79-338.26-28.42-30.15-5.77-45.9-9.2-56.37-23.68-30.86-42.61 6.2-150.13 76-193.49 29.32-18.18 77.68-22.04 174.41-29.77M176.91 1383.79s44.39 55.52 205.28 61.07 166.45 116.6 166.45 116.6 16.65 183.23-66.58 199.88S176.91 1778 176.91 1778s-94.32-11.1-127.61-33.31-44.39-72.18-44.39-72.18-22.19-111 27.75-277.62 144.25-11.1 144.25-11.1" class="b"/><path d="M84.37 85.86h101.87v146.37H84.37z" style="fill:#fd7"/><path d="M194.32 93.77V224.2l-12.13 8.01V85.75z" style="fill:#ffcc3d"/><path d="M88.78 85.75v146.46l-12.14-8.01V93.77z" style="fill:#f9f0b5"/><path d="M194.32 225.61v16a9.72 9.72 0 0 1-9.72 9.72H86.36a9.69 9.69 0 0 1-9.72-9.66v-16.06ZM194.32 78.23v16.09H76.64V78.23a9.69 9.69 0 0 1 9.72-9.66h98.25a9.68 9.68 0 0 1 9.71 9.66" class="f"/><path d="M151.67 116.32a18.5 18.5 0 0 0-2.7.2l-13.55 70.7 31.09-41.09a18.6 18.6 0 0 0-14.84-29.81" style="fill:#ed2f49"/><path d="M121.87 116.52a18.6 18.6 0 0 0-17.54 29.61l31.09 41.09Z" style="fill:#fe7074"/><path d="M160.31 134.92c0-9.35-4.93-17.08-11.35-18.4a18.36 18.36 0 0 0-13.54 9.68 18.39 18.39 0 0 0-13.55-9.68c-6.41 1.32-11.34 9-11.34 18.4a23.8 23.8 0 0 0 2.68 11.21l22.21 41.09 22.2-41.09a23.66 23.66 0 0 0 2.69-11.21" style="fill:#ff455e"/><path d="M184.52 66H86.06a12.73 12.73 0 0 0-12.73 12.73v162.83a12.73 12.73 0 0 0 12.73 12.73h98.48a12.73 12.73 0 0 0 12.73-12.73V78.73A12.75 12.75 0 0 0 184.52 66M79.59 98h111.79v124.3H79.59Zm6.71-26.12h98.37a6.71 6.71 0 0 1 6.71 6.72v13.14H79.59V78.6a6.71 6.71 0 0 1 6.71-6.72M184.66 248H86.3a6.71 6.71 0 0 1-6.71-6.72v-13.1h111.79v13.16a6.72 6.72 0 0 1-6.72 6.66" class="j"/><path d="M159.92 85a3.21 3.21 0 1 0-3.2-3.21 3.21 3.21 0 0 0 3.2 3.21M143.75 235.17H127.2a3 3 0 0 0-3 2.76 2.94 2.94 0 0 0 2.94 3.12h16.54a3 3 0 0 0 3.05-2.76 2.93 2.93 0 0 0-2.98-3.12M127.09 84.76h16.54a3 3 0 0 0 3.05-2.76 2.94 2.94 0 0 0-2.93-3.13H127.2a3 3 0 0 0-3 2.76 3 3 0 0 0 2.89 3.13M133 190a3 3 0 0 0 2.4 1.19 3 3 0 0 0 2.39-1.19l31.09-41.09a21.38 21.38 0 0 0 4.37-13 21.6 21.6 0 0 0-37.89-14.18 21.57 21.57 0 0 0-33.45 27.2Zm-13.85-69.7a15.45 15.45 0 0 1 15.43 15.43 3 3 0 0 0 6 0 21.4 21.4 0 0 0-1.81-8.63 15.59 15.59 0 1 1 25.31 18.19l-28.69 37.92-28.69-37.92a15.42 15.42 0 0 1-3.15-9.4 15.6 15.6 0 0 1 15.62-15.56ZM170.27 199.86h-69.65a3 3 0 0 0-3 2.52 3 3 0 0 0 3 3.37h69.64a3 3 0 0 0 3-2.52 3 3 0 0 0-2.99-3.37" class="j"/><path d="M472.22 78.17v94.92a9.22 9.22 0 0 1-9.22 9.22H339.51a9.22 9.22 0 0 1-9.22-9.22V78.17a9.22 9.22 0 0 1 9.22-9.17H463a9.22 9.22 0 0 1 9.22 9.17" style="fill:#13829b"/><path d="M354.25 83.7h94.92v83.4h-94.92z" style="fill:#ffdb77"/><path d="M367.62 122.87h13.36v21.2h-13.36zM394.8 108.12h13.36v35.94H394.8zM421.99 103.51h13.36v40.55h-13.36z" class="m"/><path d="M463.23 65.27H339.74a12.67 12.67 0 0 0-12.67 12.67v94.92a12.67 12.67 0 0 0 12.67 12.67h123.49a12.67 12.67 0 0 0 12.67-12.67V77.94a12.67 12.67 0 0 0-12.67-12.67m0 113.35H339.74a5.76 5.76 0 0 1-5.76-5.76V77.94a5.76 5.76 0 0 1 5.76-5.76h123.49a5.76 5.76 0 0 1 5.77 5.76v94.92a5.76 5.76 0 0 1-5.77 5.76" class="n"/><path d="M449 80.47h-95a3.45 3.45 0 0 0-3.45 3.46v83.4a3.45 3.45 0 0 0 3.45 3.46h95a3.46 3.46 0 0 0 3.45-3.46v-83.4a3.46 3.46 0 0 0-3.45-3.46m-3.46 83.41h-88v-76.5h88Z" class="n"/><circle cx="460.96" cy="125.55" r="5.46" class="n"/><path d="M338.59 114.31v22.48a3.55 3.55 0 0 0 3 3.56 3.46 3.46 0 0 0 3.89-3.43v-22.74a3.46 3.46 0 0 0-3.89-3.43 3.55 3.55 0 0 0-3 3.56M338.59 99.31v3.06a3.54 3.54 0 0 0 3 3.56 3.45 3.45 0 0 0 3.89-3.43v-3.33a3.45 3.45 0 0 0-3.89-3.42 3.54 3.54 0 0 0-3 3.56M367.85 147.75h67.27a3.46 3.46 0 0 0 3.46-3.46v-40.55a3.45 3.45 0 0 0-3.46-3.45h-13.36a3.45 3.45 0 0 0-3.46 3.45v37.1h-6.91v-32.49a3.46 3.46 0 0 0-3.45-3.46H395a3.45 3.45 0 0 0-3.45 3.46v32.49h-6.91V123.1a3.46 3.46 0 0 0-3.46-3.46h-13.33a3.46 3.46 0 0 0-3.46 3.46v21.19a3.46 3.46 0 0 0 3.46 3.46m57.37-40.55h6.45v33.64h-6.45Zm-26.73 4.61h6.45v29h-6.45Zm-27.19 14.74h6.45v14.29h-6.45Z" class="n"/><path d="M1270 960v14" class="o"/><path d="M1270 983.75v217.38" style="fill:none;stroke:#77c1e8;stroke-width:8px;stroke-miterlimit:10;stroke-dasharray:27.29 9.75"/><path d="M1270 1206v14l-14 .03" class="o"/><path d="m1246.11 1220.05-1010.16 1.91" style="fill:none;stroke:#77c1e8;stroke-width:8px;stroke-miterlimit:10;stroke-dasharray:27.7 9.89"/><path d="m231 1221.97-14 .03v14" class="o"/><path d="M217 1245.49v247.76" style="fill:none;stroke:#77c1e8;stroke-width:8px;stroke-miterlimit:10;stroke-dasharray:26.58 9.49"/><path d="M217 1498v14M308 345q1.15 6.81 2.48 13.78" class="o"/><path d="M312.4 368.51c12.19 59.17 34.11 121.72 75.57 138.83a68.14 68.14 0 0 0 31.79 4.78C701.41 493.18 958.7 474 1080 554c48.08 31.74 184.65 100.91 190 256" style="fill:none;stroke:#77c1e8;stroke-width:8px;stroke-miterlimit:10;stroke-dasharray:27.76 9.91"/><path d="M1270.12 815q.12 6.88-.12 14" class="o"/><path d="M1323 864.48a3.45 3.45 0 0 0 3.48-3.44v-21.66A3.48 3.48 0 0 0 1323 836h-106a3.48 3.48 0 0 0-3.53 3.42v21.7a3.48 3.48 0 0 0 3.53 3.42h106Z" class="t"/><path d="M1323 899.79a3.45 3.45 0 0 0 3.48-3.44v-21.66a3.48 3.48 0 0 0-3.53-3.42H1217a3.48 3.48 0 0 0-3.53 3.42v21.7a3.48 3.48 0 0 0 3.53 3.42h106Z" style="fill:#ffc10d"/><path d="M1261.47 928.74h17.42v16.9h-17.42z" style="fill:#56ace0"/><path d="M1333.84 839.14a10.48 10.48 0 0 0-10.61-10.32h-106.11a10.46 10.46 0 0 0-10.61 10.3V861a10.1 10.1 0 0 0 2.73 6.88 10.1 10.1 0 0 0-2.73 6.89v21.88a10.46 10.46 0 0 0 10.61 10.3h49.38v15h-8.8a3.51 3.51 0 0 0-3.59 3.42V934h-43.63a3.38 3.38 0 1 0 0 6.76h44v8.53a3.51 3.51 0 0 0 3.53 3.49h24.29a3.51 3.51 0 0 0 3.53-3.49v-8.53H1346a3.43 3.43 0 0 0 3.48-3.56 3.53 3.53 0 0 0-3.61-3.2h-60v-8.6a3.51 3.51 0 0 0-3.59-3.42h-8.8V907h49.76a10.47 10.47 0 0 0 10.62-10.3v-21.93a10.06 10.06 0 0 0-2.73-6.87 10.2 10.2 0 0 0 2.73-6.88v-21.88Zm-55 106.5h-17.41v-16.9h17.41zm48-49.25a3.48 3.48 0 0 1-3.55 3.42H1217a3.48 3.48 0 0 1-3.55-3.42v-21.7a3.48 3.48 0 0 1 3.55-3.42h106.29a3.49 3.49 0 0 1 3.55 3.42zm0-35.31a3.48 3.48 0 0 1-3.55 3.42H1217a3.47 3.47 0 0 1-3.55-3.42v-21.7A3.48 3.48 0 0 1 1217 836h106.29a3.49 3.49 0 0 1 3.55 3.42v21.7Z"/><path d="M1229.73 841.87a3.42 3.42 0 0 0-3.48 3.38V855a3.44 3.44 0 0 0 3.66 3.38 3.51 3.51 0 0 0 3.3-3.51v-9.57a3.42 3.42 0 0 0-3.48-3.43M1246.37 841.87a3.43 3.43 0 0 0-3.48 3.38V855a3.44 3.44 0 0 0 3.66 3.38 3.52 3.52 0 0 0 3.31-3.51v-9.57a3.45 3.45 0 0 0-3.49-3.43M1310.24 846.85h-10a3.38 3.38 0 1 0 0 6.76h10a3.38 3.38 0 1 0 0-6.76M1229.73 877.42a3.42 3.42 0 0 0-3.48 3.38v9.7a3.43 3.43 0 0 0 3.66 3.37 3.5 3.5 0 0 0 3.3-3.5v-9.57a3.42 3.42 0 0 0-3.48-3.38M1246.37 877.42a3.43 3.43 0 0 0-3.48 3.38v9.7a3.43 3.43 0 0 0 3.66 3.37 3.51 3.51 0 0 0 3.31-3.5v-9.57a3.45 3.45 0 0 0-3.49-3.38M1310.24 882.16h-10a3.38 3.38 0 1 0 0 6.76h10a3.38 3.38 0 1 0 0-6.76" class="w"/><path d="M1184.6 899.68c0 7.83-24.46 14.21-54.63 14.21s-54.62-6.34-54.62-14.21c0-7.83 24.46-14.21 54.62-14.21s54.58 6.38 54.63 14.21" style="fill-opacity:.2"/><path d="M1100.06 884.4c-5.29-7.37-6.31-31.4 6-46.18 6.1-7.09 7.68-12 8.15-18.68.34-7.58-5.51-30.15 16.51-31.85 22.32-1.74 21.08 19.63 21 30.94-.08 9.52 7.22 15 12.25 22.4 9.26 13.67 8.49 37.2-1.75 50-13 15.95-24.06 9-31.45 9.61-13.82.79-14.29 7.91-30.68-16.19Z"/><path d="M1153.91 842.44c3.84 3.44 13.79 18.81-2 28.41-5.55 3.36 5 16.12 10 9.94 8.91-11.1 3.24-28.82-2.14-35.16-3.58-4.47-9.13-6.21-5.89-3.19Z" style="fill:url(#a)"/><path d="M1152.85 840.37c6.31 5 17.79 22.37 1 33.71-5.5 3.53 4.87 14.67 10.71 9 20.27-19.8-.51-42.53-7.68-50.36-6.4-6.84-12.08 1.57-4.05 7.66Z" style="stroke:#000;stroke-width:.98px"/><path d="M1143.76 798.5c-.22 5.67-6.66 10.6-14.38 11.06s-13.79-3.86-13.57-9.53c.21-5.67 6.65-10.6 14.38-11.06s13.78 3.85 13.57 9.53" style="fill:url(#b)"/><path d="M1125.28 812c.21 3.69-1.58 6.79-4 6.92s-4.65-2.74-4.87-6.42c-.21-3.69 1.58-6.8 4.06-6.92s4.65 2.73 4.86 6.42Z" style="fill:url(#c)"/><path d="M1129.76 812.29c.09 4.27 3 7.66 6.36 7.58s6.1-3.6 6-7.91c-.09-4.27-3-7.66-6.36-7.58s-6.15 3.64-6 7.91" style="fill:url(#d)"/><path d="M1132.58 813.24c0 2.36 1.15 4.27 2.73 4.27s2.86-1.91 2.9-4.23c0-2.36-1.15-4.26-2.73-4.26s-2.86 1.9-2.9 4.22M1122.72 813.28c.21 2-.55 3.61-1.66 3.77s-2.18-1.32-2.39-3.27c-.22-1.95.55-3.6 1.66-3.77s2.18 1.33 2.39 3.27"/><path d="M1133.22 811.92c-.13 1.32.51 2.4 1.41 2.48s1.75-.95 1.87-2.23c.13-1.33-.51-2.41-1.4-2.49s-1.75 1-1.88 2.24" style="fill:url(#e)"/><path d="M1121.78 812.25c.13 1.08-.34 2-1 2.11s-1.33-.74-1.45-1.86c-.13-1.08.34-2 1-2.12s1.32.79 1.45 1.87" style="fill:url(#f)"/><path d="M1108.34 852.92c3-6.67 9.47-18.39 9.6-27.46 0-7.21 22.23-9 24-1.74a117.4 117.4 0 0 0 9.21 23.19c2.9 5.18 11.31 21.71 2.35 36.12-8.07 12.76-32.52 22.86-45.57-1.74-4.44-8.53-3.63-19.09.38-28.37Z" style="fill:url(#g)"/><path d="M1105.61 848c-2.6 4.76-8 17.27 5.16 24.11 14.13 7.28 14.08 22.24-2.9 15.11-15.53-6.42-8.66-32.43-4.31-38.64 2.82-4.35 7.08-9.69 2-.58Z" style="fill:url(#h)"/><path d="M1107.83 842.57c-4.14 6.54-14 21.95-.77 30 17.84 10.65 12.8 21.25-3.5 11.68-23-13.33-2.77-40.26 6.4-50.53 10.5-11.51 2 2.11-2.13 8.87Z" style="stroke:#000;stroke-width:1.25px"/><path d="M1148 855.45c0 7.29-7.22 16.73-19.59 16.65-12.76.08-18.18-9.36-18.18-16.65s8.45-13.22 18.86-13.22 18.91 5.93 18.91 13.22" style="fill:url(#i)"/><path d="M1141.28 832.54c-.13 7.54-5.2 9.32-11.6 9.32s-11.06-1.12-11.61-9.32c0-5.13 5.21-8.12 11.61-8.12s11.6 3 11.6 8.12" style="fill:url(#j)"/><path d="M1102.58 844.14c4.18-6.17 13-15.66 1.66 1.33-9.21 14-3.41 23-.42 25.47 8.62 7.45 8.28 12.46 1.49 8.53-14.55-8.41-11.52-22.57-2.73-35.33" style="fill:url(#k)"/><path d="M1163.13 846.67c-3.63-7.25-15.15-25.64.56-4.27 14.29 19.34 4.26 32.8 2.47 34.13s-7.81 4-6.06-.66 10.67-13.55 3-29.2Z" style="fill:url(#l)"/><path d="M1099.42 903.82c-9.56-4.93-23.43.95-18.39-12.38 1-3-1.49-7.58.13-10.52 1.92-3.6 6.06-2.82 8.53-5.22s4-6.79 8.54-6.13 7.55 6 10.71 12.67c2.34 4.73 10.62 11.39 10.07 16.69-.68 8.12-10.2 9.66-19.59 4.89Z" style="stroke:#e68c3f;stroke-width:6.25px;fill:url(#m)"/><path d="M1169 872.51c-1.45 2.65-7.51 6.92-11.56 5.8s-6-7.12-5.17-11.72c.77-5.14 5.17-5.43 10.71-2.86 6 2.86 7.77 5.26 6 8.78Z" style="fill:url(#n)"/><path d="M1165.69 901.54c7-8.24 22.57-6.54 12.08-17.85-2.22-2.44-1.54-7.66-4.27-9.9-3.2-2.73-6.74-.49-10-1.9s-6.66-4.47-10.63-2.4-4.4 7.58-4.78 14.78c-.34 5.18-5.21 13.84-2.6 18.6 3.75 7.37 13.52 6.38 20.18-1.33Z" style="stroke:#e68c3f;stroke-width:6.25px;fill:url(#o)"/><path d="M1162.66 890.53c10.84-15.53 2.78-15.41 0-16.61s-5.59-3.69-8.79-2-3.37 6.21-3.45 12.09c-.13 4.23-3.76 11.31-1.58 15.25 2.64 4.59 9-2.07 13.78-8.74Z" style="fill:url(#p)"/><path d="M1097.2 892.76c-16.21-10.18-8.62-13.66-6.18-15.28 2.94-2.07 3-6.05 6.61-5.67s5.76 4.72 8.19 10.1c1.79 3.85 8 9 7.56 13.42-.6 5.22-9.18 1.78-16.18-2.57" style="fill:url(#q)"/><path d="M1168.08 872.39c-1.28 2.15-6.49 5.55-9.94 4.64s-5.16-5.72-4.44-9.37c.64-4.14 4.44-4.34 9.22-2.27 5.08 2.23 6.65 4.14 5.16 7"/><path d="M1164.58 871.19c-.81 1.49-4.22 3.85-6.61 3.23s-3.59-4-3.2-6.51c.34-2.85 2.9-3 6.14-1.61 3.5 1.57 4.61 2.9 3.67 4.89" style="fill:url(#r)"/><path d="M1120.46 817.14c1.71-1.54 5.85-6.22 13.7-1.33 1.45.91 2.64 1 5.42 2.15 5.59 2.24 2.94 7.62-3 9.45-2.56.78-4.87 3.81-9.48 3.52-4-.21-5-2.74-7.42-4.1-4.31-2.36-5-5.55-2.6-7.25s3.24-2.32 3.41-2.44Z" style="stroke:#e68c3f;stroke-width:3.75px;fill:url(#s)"/><path d="M1139.66 821.48c-2.35.13-7.42 5.06-12.76 5.06s-8.53-4.81-9.34-4.81" style="fill:none;stroke:#e68c3f;stroke-width:2.5px"/><path d="M1123.1 816.72a5.82 5.82 0 0 1 7.09-.7c.77.41 1.53.87 2.64 1.49 2.27 1.28 1.16 3.15-1.57 4.31-1.24.49-3.29 1.57-4.83 1.49-1.7-.17-2.86-1.25-4-1.95-2.09-1.33-2-2.44-1-3.31a18 18 0 0 1 1.62-1.33Z" style="fill:url(#t)"/><path d="M1179.8 899.09c0-.53.08-1.06.08-1.6 0-17.58-14.69-31.84-32.81-31.84a33.7 33.7 0 0 0-10.3 1.63 52.86 52.86 0 0 0-42.19-20.73c-29 0-52.49 22.81-52.49 51v.79c-19.14 3.75-33.45 20.44-32.82 40.26.68 21.56 19.22 38.55 41.45 38.55h117.68c22.65 0 41-17.82 41-39.8 0-18.19-12.51-33.47-29.6-38.26" style="fill:#36a9e1"/><path d="M1136.77 867.1a52.89 52.89 0 0 0-42.19-20.73c-29 0-52.49 22.81-52.49 51v.79c-18.73 3.67-32.84 19.74-32.84 39 0 22 18.36 39.8 41 39.8" style="fill:#5ebae7"/><path d="M1168.4 979.84h-118.11c-24.34 0-44.15-19.23-44.15-42.86 0-19.47 13.66-36.5 32.83-41.43.89-29 25.49-52.37 55.61-52.37a56.08 56.08 0 0 1 43.42 20.26 36.6 36.6 0 0 1 9.12-1.16c19.62 0 35.61 15.33 36 34.29a44.46 44.46 0 0 1 20.39 14.43 41.56 41.56 0 0 1 9 26c.04 23.61-19.77 42.84-44.11 42.84m-73.78-130.31c-27.2 0-49.34 21.48-49.34 47.89v3.28l-2.57.51c-17.57 3.44-30.32 18.59-30.32 36 0 20.27 17 36.75 37.86 36.75H1168c20.41 0 37.49-15.54 38.23-35.35a35.62 35.62 0 0 0-7.72-23.65A38.14 38.14 0 0 0 1179 902l-2.39-.67.12-2.42v-1.44c0-15.87-13.3-28.79-29.66-28.79a30.6 30.6 0 0 0-9.31 1.47l-2.16.7-1.36-1.78a49.37 49.37 0 0 0-39.62-19.54" style="fill:#1d1d1b"/><path d="M1067 887.1h-6.3c0-13.79 11.56-25 25.77-25v6.11c-10.77-.01-19.47 8.47-19.47 18.89" class="t"/><path d="M1436.03 850.05h13.05v79.73h-13.05z" style="fill:#2f5e88"/><path d="M1351.72 850.05h89.39v79.73h-89.39z" style="fill:#367596"/><path d="M1449.24 831.76h-7.89V855h7.89a3.91 3.91 0 0 0 4-3.84v-15.57a3.91 3.91 0 0 0-4-3.83M1449.24 862.72h-7.89v23.21h7.89a3.9 3.9 0 0 0 4-3.83v-15.55a3.9 3.9 0 0 0-4-3.83" class="ba"/><path d="M1445.22 866.55v15.55a3.9 3.9 0 0 1-4 3.83h-89.42a3.9 3.9 0 0 1-4-3.83v-15.55a3.9 3.9 0 0 1 4-3.83h89.47a3.9 3.9 0 0 1 3.95 3.83" class="bb"/><path d="M1449.24 893.67h-7.89v23.21h7.89a3.9 3.9 0 0 0 4-3.83V897.5a3.9 3.9 0 0 0-4-3.83M1449.24 924.86h-7.89v23.21h7.89a3.9 3.9 0 0 0 4-3.83v-15.55a3.9 3.9 0 0 0-4-3.83" class="ba"/><path d="M1445.22 897.49v15.56a3.9 3.9 0 0 1-4 3.83h-89.42a3.9 3.9 0 0 1-4-3.83V897.5a3.9 3.9 0 0 1 4-3.83h89.47a3.9 3.9 0 0 1 3.95 3.82M1445.22 928.69v15.55a3.9 3.9 0 0 1-4 3.83h-89.42a3.9 3.9 0 0 1-4-3.83v-15.55a3.9 3.9 0 0 1 4-3.83h89.47a3.9 3.9 0 0 1 3.95 3.83M1445.22 835.59v15.55a3.91 3.91 0 0 1-4 3.84h-89.42a3.91 3.91 0 0 1-4-3.84v-15.55a3.91 3.91 0 0 1 4-3.83h89.47a3.91 3.91 0 0 1 3.95 3.83" class="bb"/><path d="M1400.47 841.38h-32.87a2 2 0 0 1-2-1.61 1.92 1.92 0 0 1 2-2.15h32.87a2 2 0 0 1 2 1.61 1.91 1.91 0 0 1-2 2.15M1359.63 841.38h-3.79a2 2 0 0 1-2-1.76 1.9 1.9 0 0 1 1.93-2h3.79a2 2 0 0 1 2 1.76 1.9 1.9 0 0 1-1.93 2M1400.47 872.33h-32.87a2 2 0 0 1-2-1.6 1.91 1.91 0 0 1 2-2.15h32.87a2 2 0 0 1 2 1.6 1.91 1.91 0 0 1-2 2.15M1359.63 872.33h-3.79a2 2 0 0 1-2-1.76 1.9 1.9 0 0 1 1.93-2h3.79a2 2 0 0 1 2 1.76 1.9 1.9 0 0 1-1.93 2M1400.47 903.28h-32.87a2 2 0 0 1-2-1.6 1.91 1.91 0 0 1 2-2.15h32.87a2 2 0 0 1 2 1.6 1.91 1.91 0 0 1-2 2.15M1359.63 903.28h-3.79a2 2 0 0 1-2-1.76 1.9 1.9 0 0 1 1.93-2h3.79a2 2 0 0 1 2 1.76 1.9 1.9 0 0 1-1.93 2M1400.47 934.24h-32.87a2 2 0 0 1-2-1.61 1.92 1.92 0 0 1 2-2.15h32.87a2 2 0 0 1 2 1.61 1.91 1.91 0 0 1-2 2.15M1359.63 934.24h-3.79a2 2 0 0 1-2-1.76 1.9 1.9 0 0 1 1.93-2h3.79a2 2 0 0 1 2 1.76 1.9 1.9 0 0 1-1.93 2" class="bc"/><path d="M1455.12 851.28v-15.65a5.83 5.83 0 0 0-5.92-5.74h-97.36a5.83 5.83 0 0 0-5.92 5.74v15.65a5.77 5.77 0 0 0 3.86 5.42v4.49a5.75 5.75 0 0 0-3.86 5.42v15.64a5.75 5.75 0 0 0 3.86 5.42v4.49a5.75 5.75 0 0 0-3.86 5.42v15.64a5.75 5.75 0 0 0 3.86 5.42v4.5a5.75 5.75 0 0 0-3.86 5.42v15.64a5.84 5.84 0 0 0 5.92 5.75h97.36a5.84 5.84 0 0 0 5.92-5.75v-15.64a5.75 5.75 0 0 0-3.86-5.42v-4.5a5.75 5.75 0 0 0 3.86-5.42v-15.64a5.75 5.75 0 0 0-3.86-5.42v-4.49a5.75 5.75 0 0 0 3.86-5.42v-15.64a5.75 5.75 0 0 0-3.86-5.42v-4.49a5.77 5.77 0 0 0 3.86-5.42m-105.34-15.73a2 2 0 0 1 2-1.91H1449a1.94 1.94 0 0 1 2 1.91v15.64a1.94 1.94 0 0 1-2 1.91h-97.28a2 2 0 0 1-2-1.91v-15.64Zm3.87 25.29v-3.75h93.5v3.75Zm0 61.91V919h93.5v3.76Zm97.35 21.53a1.94 1.94 0 0 1-2 1.92h-97.28a2 2 0 0 1-2-1.92v-15.63a2 2 0 0 1 2-1.92H1449a1.94 1.94 0 0 1 2 1.92zm0-31.19a1.94 1.94 0 0 1-2 1.92h-97.28a2 2 0 0 1-2-1.92v-15.63a2 2 0 0 1 2-1.92H1449a1.94 1.94 0 0 1 2 1.92zm0-30.74a2 2 0 0 1-2 1.94h-7.72a2 2 0 0 0-2 1.76 1.9 1.9 0 0 0 1.93 2h5.9v3.75h-93.5V888h79.59a2 2 0 0 0 2-1.6 1.9 1.9 0 0 0-2-2.15h-81.51a2 2 0 0 1-2-1.92v-15.82a2 2 0 0 1 2-1.92H1449a1.94 1.94 0 0 1 2 1.92z"/><path d="M364 308.29H178.07a7.76 7.76 0 0 1-7.74-7.79V137a7.76 7.76 0 0 1 7.74-7.79H364a7.76 7.76 0 0 1 7.74 7.79v163.51a7.76 7.76 0 0 1-7.74 7.78" style="fill:#e4eaf8"/><path d="m354.06 308.29 17.65-17.59v-65.61a16 16 0 0 0-2.57 2l-58.36 58.17-1.5 1.5-.88 1.93-8.92 19.55Z" style="fill:#d5dced"/><path d="M170.33 160.21V137a7.76 7.76 0 0 1 7.74-7.79H364a7.76 7.76 0 0 1 7.74 7.79v23.19" style="fill:#c7cfe2"/><ellipse cx="209" cy="195.32" class="bg" rx="7.74" ry="7.79"/><ellipse cx="209" cy="234.29" class="bh" rx="7.74" ry="7.79"/><ellipse cx="209" cy="273.25" class="bg" rx="7.74" ry="7.79"/><path d="m335.85 310.12-30.1 13.78 13.68-30.31 57.77-58.16a3.86 3.86 0 0 1 5.48 0l10.94 11a3.92 3.92 0 0 1 0 5.51Z" class="bg"/><path d="m327 302.47 61.12-61.53-5.47-5.51a3.86 3.86 0 0 0-5.48 0l-57.77 58.16-.38.84Z" class="bh"/><path d="m305.75 323.9 29.26-13.4-15.96-16.07z" class="bi"/><path d="m319.05 294.43-13.3 29.47 21.28-21.43z" class="bj"/><path d="M382.68 235.43a3.85 3.85 0 0 0-5.48 0l-8.07 8.12 16.42 16.53 8.07-8.12a3.92 3.92 0 0 0 0-5.51Z" class="bi"/><path d="m388.15 240.94-5.47-5.51a3.86 3.86 0 0 0-5.48 0l-8.07 8.12 8.21 8.27Z" class="bj"/><path d="M297.77 304.65H175.31a1.37 1.37 0 0 1-1.36-1.38V163.86H317a3.7 3.7 0 0 0 3.7-3.11 3.64 3.64 0 0 0-3.58-4.18H174V137a4.13 4.13 0 0 1 4.11-4.14H364a4.13 4.13 0 0 1 4.11 4.14v19.56h-11.73a3.71 3.71 0 0 0-3.7 3.11 3.65 3.65 0 0 0 3.59 4.18h11.82v58.45a3.72 3.72 0 0 0 3.09 3.73 3.63 3.63 0 0 0 4.15-3.61V137A11.41 11.41 0 0 0 364 125.58H178.08A11.41 11.41 0 0 0 166.71 137v171.14a3.79 3.79 0 0 0 3.77 3.8H299a1.3 1.3 0 0 0 .91-.39c3.09-3.15.89-6.9-2.14-6.9"/><path d="M340.57 156.57H333a3.72 3.72 0 0 0-3.71 3.11 3.65 3.65 0 0 0 3.59 4.18h7.6a3.7 3.7 0 0 0 3.7-3.11 3.64 3.64 0 0 0-3.61-4.18M185.79 141.08a3.64 3.64 0 0 0-3.47 4.68 3.52 3.52 0 0 0 2.31 2.43 3.67 3.67 0 0 0 4.53-4.95 3.49 3.49 0 0 0-3.26-2.16ZM216.74 141.08a3.64 3.64 0 0 0-3.46 4.68 3.5 3.5 0 0 0 2.31 2.43 3.67 3.67 0 0 0 4.53-4.95 3.5 3.5 0 0 0-3.26-2.16ZM201.23 141.08a3.64 3.64 0 0 0-3.47 4.68 3.52 3.52 0 0 0 2.31 2.43 3.67 3.67 0 0 0 4.53-4.95 3.49 3.49 0 0 0-3.26-2.16ZM355.81 141.08H232.47a3.71 3.71 0 0 0-3.7 3.11 3.64 3.64 0 0 0 3.59 4.18h123.57a3.64 3.64 0 0 0 3.58-4.18 3.7 3.7 0 0 0-3.7-3.11M209 183.88a11.45 11.45 0 1 0 11.37 11.44A11.41 11.41 0 0 0 209 183.88m0 15.58a4.14 4.14 0 1 1 4.12-4.14 4.13 4.13 0 0 1-4.12 4.14M340.46 183.91h-108a3.69 3.69 0 0 0-3.7 3.11 3.63 3.63 0 0 0 3.58 4.18h108a3.72 3.72 0 0 0 3.71-3.12 3.64 3.64 0 0 0-3.59-4.17M232.23 206.69h7.61a3.71 3.71 0 0 0 3.7-3.11 3.64 3.64 0 0 0-3.54-4.18h-7.61a3.7 3.7 0 0 0-3.7 3.11 3.64 3.64 0 0 0 3.54 4.18M286.39 206.69a3.65 3.65 0 0 0 3.59-4.18 3.72 3.72 0 0 0-3.71-3.11h-7.48a3.7 3.7 0 0 0-3.7 3.11 3.64 3.64 0 0 0 3.58 4.18ZM263.17 206.69a3.65 3.65 0 0 0 3.59-4.18 3.72 3.72 0 0 0-3.71-3.11h-7.48a3.7 3.7 0 0 0-3.7 3.11 3.64 3.64 0 0 0 3.58 4.18ZM209 222.84a11.45 11.45 0 1 0 11.37 11.45A11.42 11.42 0 0 0 209 222.84m0 15.58a4.14 4.14 0 1 1 4.12-4.14 4.13 4.13 0 0 1-4.12 4.14M340.34 222.63H232.46a3.7 3.7 0 0 0-3.7 3.11 3.63 3.63 0 0 0 3.58 4.18h108.12a3.64 3.64 0 0 0 3.59-4.17 3.72 3.72 0 0 0-3.71-3.12M232.23 245.87h7.61a3.71 3.71 0 0 0 3.7-3.11 3.64 3.64 0 0 0-3.58-4.18h-7.61a3.71 3.71 0 0 0-3.7 3.11 3.64 3.64 0 0 0 3.58 4.18M286.39 245.87a3.65 3.65 0 0 0 3.59-4.18 3.72 3.72 0 0 0-3.71-3.11h-7.48a3.7 3.7 0 0 0-3.7 3.11 3.64 3.64 0 0 0 3.58 4.18ZM263.17 245.87a3.65 3.65 0 0 0 3.59-4.18 3.72 3.72 0 0 0-3.71-3.11h-7.48a3.7 3.7 0 0 0-3.7 3.11 3.64 3.64 0 0 0 3.58 4.18ZM209 261.8a11.45 11.45 0 1 0 11.37 11.45A11.42 11.42 0 0 0 209 261.8m0 15.59a4.14 4.14 0 1 1 4.12-4.14 4.14 4.14 0 0 1-4.12 4.14M305.55 261.82h-73.13a3.7 3.7 0 0 0-3.7 3.11 3.64 3.64 0 0 0 3.58 4.18h73.37a3.63 3.63 0 0 0 3.58-4.18 3.7 3.7 0 0 0-3.7-3.11M232.23 277.31a3.64 3.64 0 0 0-3.58 4.18 3.7 3.7 0 0 0 3.7 3.11h7.49a3.71 3.71 0 0 0 3.7-3.11 3.64 3.64 0 0 0-3.58-4.18ZM278.67 277.31a3.64 3.64 0 0 0-3.58 4.18 3.7 3.7 0 0 0 3.7 3.11h7.48a3.72 3.72 0 0 0 3.71-3.11 3.65 3.65 0 0 0-3.59-4.18ZM255.45 277.31a3.64 3.64 0 0 0-3.58 4.18 3.7 3.7 0 0 0 3.7 3.11h7.48a3.72 3.72 0 0 0 3.71-3.11 3.65 3.65 0 0 0-3.59-4.18ZM396.19 243.86l-10.95-11a7.46 7.46 0 0 0-10.6 0L316.87 291a3.6 3.6 0 0 0-.74 1.07l-13.68 30.31a3.67 3.67 0 0 0 .73 4.09 3.64 3.64 0 0 0 2.57 1.07 3.6 3.6 0 0 0 1.5-.33l30.1-13.77a3.6 3.6 0 0 0 1.07-.74l57.77-58.17a7.61 7.61 0 0 0 0-10.68Zm-71.63 49.73L369 248.86l11.29 11.36L335.85 305Zm-4 6.31 9 9.08-16.52 7.56Zm70.49-50.53-5.65 5.69-11.28-11.37 5.64-5.68a.24.24 0 0 1 .34 0l10.95 11a.27.27 0 0 1 .07.17.24.24 0 0 1-.06.19Z"/><path d="M280.1 1557.93v-73.33M122.96 1453.17v83.81h68.1M218.99 1617.87H94.45M222.49 1647.56h-78.57v62.85M240.53 1646.39v84.39l66.35.18" class="bk"/><path d="M278.36 1638.83v55.87l150.73-.11M375.55 1494.49v78.57h-94.28M456.45 1597.51H308.62M308.04 1622.53h75.66" class="bk"/><circle cx="393.59" cy="1622.53" r="9.31" class="bk"/><circle cx="312.69" cy="1730.78" r="9.31" class="bk"/><circle cx="280.1" cy="1472.96" r="9.31" class="bk"/><path d="M315.46 1597a37.5 37.5 0 0 0-1.39-10l11.17-6.44-9.34-16.19-11.48 6.44a36.46 36.46 0 0 0-17.5-10v-13h-18.87v13a34.17 34.17 0 0 0-17 10l-11-6.44-9.25 16.18 10.8 6.45c-.88 3.19-1.74 6-1.74 9.43v5.29h7.19v10.46a22.6 22.6 0 0 1 7 3.83l2.29-1.22a27.56 27.56 0 0 1-6.35-16.41 28.37 28.37 0 1 1 19.45 25.17l-8 4.59a20 20 0 0 1 0 7.66l9.22 5.28-1.71 3 4.63 2h13v-13a35.9 35.9 0 0 0 17.8-10l11.31 6.44 9.43-16.18-11.12-6.41a37.4 37.4 0 0 0 1.46-9.93" class="bl"/><path d="M278.09 1568.92a28 28 0 1 0 28 28 28 28 0 0 0-28-28m0 49a21 21 0 0 1-4.67-.52l-14-10.86a21 21 0 1 1 18.67 11.46Z" class="bm"/><circle cx="278.09" cy="1596.95" r="21.02" class="t"/><circle cx="217.37" cy="1557.25" r="14.01" class="t"/><path d="M217.37 1536.22a21 21 0 1 0 21 21 21 21 0 0 0-21-21m0 35a14 14 0 1 1 14-14 14 14 0 0 1-14 14.04Z" class="bn"/><path d="m230.94 1580.52 9.35-16.19 4.49 2.6 2.27-3.76a28.3 28.3 0 0 0 .68-6.14 29 29 0 0 0-.68-6.24l9.37-5.36-9.34-16.16-9.75 5.44c-3.14-2.83-11.22-6.35-11.22-6.35v-10.82h-18.87v10.82c-2.33 1.33-7.37 3.53-10.5 6.37l-9.25-5.43-9.26 16.18 9.41 5.41a30.25 30.25 0 0 0 0 12.71l-9.36 5.41 9.34 16.18 9.08-5.43c3.14 2.84 8.18 5 10.81 6.37v10.79h18.27v-11.68h7.91l1.41-2.3Zm-13.57-2.26a21 21 0 1 1 21-21 21 21 0 0 1-21 21" class="bm"/><path d="M228.21 1599.62h-23.36v-12l-.47-.23a52 52 0 0 1-8-4.71l-9.64 5.81-11.74-20.32 10-5.76a33 33 0 0 1-.42-5.17 33.6 33.6 0 0 1 .39-5.16l-10-5.76 11.58-20.27 9.84 5.8a52 52 0 0 1 8-4.72l.47-.24v-11.45h23.36v11.22a30.3 30.3 0 0 1 9.32 5.24l10.4-5.77 11.62 20.17-10 5.7a34.6 34.6 0 0 1 .32 5 28 28 0 0 1-.83 6.1l-.11.52-4.55-1 .11-.53a23.8 23.8 0 0 0 .73-5.12 27 27 0 0 0-.52-5.77l-.35-1.66 8.87-5-7-12.14-9.27 5.13-1.23-1.11a25.65 25.65 0 0 0-10.47-5.84l-1.49-.48v-9.88h-14.13v9.6l-1.24.66c-.52.28-1.14.59-1.8.93-2.58 1.29-6.11 3.06-8.41 5.13l-1.28 1.14-8.72-5.1-7 12.14 8.95 5.11-.35 1.66a28.3 28.3 0 0 0-.61 5.88 28.6 28.6 0 0 0 .64 5.88l.36 1.65-8.89 5.11 7.06 12.14 8.53-5.11 1.29 1.16c2.3 2.07 5.83 3.84 8.4 5.13l1.81.92 1.24.66v10.19h14.08v-9.88h4.49v14.38Z"/><path d="M289 1648.74h-16.16V1644h11.39v-12.33l1.77-.44a36.1 36.1 0 0 0 16.75-9.39l1.26-1.28 11 6.21 7.17-12.24-10.74-6.21.48-1.74a34.2 34.2 0 0 0 0-18.82l-.49-1.75 10.81-6.21-7.09-12.25-11.15 6.17-1.25-1.27a35.56 35.56 0 0 0-16.75-9.39l-1.77-.45v-12.12h-14.38v12.12l-1.77.45a32.85 32.85 0 0 0-15.83 9.39l-1.28 1.3-10.51-6.19-7 12.17 10.87 6.23-.49 1.72a34 34 0 0 0-1.58 8.94h-4a32.7 32.7 0 0 1 1.26-8.41l-11.59-6.7 11.43-20.27 11.29 6.74a36.3 36.3 0 0 1 14.69-8.83V1546h23.37v13s11.61 4.82 16 8.87l12-6.71 11.65 20.18-11.67 6.73a38.4 38.4 0 0 1 0 17.71l11.61 6.73-11.77 20.18-11.82-6.69a39.3 39.3 0 0 1-16 8.86v13.57h.3Z"/><path d="M217.37 1580.59a23.35 23.35 0 1 1 23.34-23.35 22 22 0 0 1-.14 2.59l-4.62-.51a20 20 0 0 0 .11-2.08 18.7 18.7 0 1 0-8.31 15.55l2.59 3.87a23.25 23.25 0 0 1-12.97 3.93M278.24 1627.45v-4.65a25.67 25.67 0 1 0-25.71-25.58h-4.66a30.36 30.36 0 1 1 30.37 30.23"/><path d="M217.37 1573.58a16.34 16.34 0 1 1 16.34-16.34 16.36 16.36 0 0 1-16.34 16.34m0-28a11.69 11.69 0 1 0 11.68 11.68 11.7 11.7 0 0 0-11.68-11.7ZM278.09 1620.29a23.6 23.6 0 0 1-5.18-.57l1-4.54a18.66 18.66 0 1 0-12.47-9.66l-4.13 2.14a23.35 23.35 0 1 1 20.75 12.63Z"/><path d="M265.65 1592.73h23.66v4.79h-23.66zM270.15 1599.62h14.38v4.79h-14.38zM207.24 1555.28h4.79v4.79h-4.79zM214.43 1555.28h4.79v4.79h-4.79zM221.32 1555.28h4.79v4.79h-4.79z"/><path d="M259.44 1606.61c-.09-.17-.17-.35-.25-.52a5 5 0 0 0 .22.5ZM275.1 1617.73c.24 0 .48.09.72.11-.24-.02-.48-.07-.72-.11M257.22 1599.33c0 .25.07.5.11.74-.04-.24-.09-.49-.11-.74M273.63 1617.48l-.24-.06Z" class="bl"/><circle cx="240.72" cy="1631.98" r="4.67" class="t"/><path d="M240.72 1620.3a11.68 11.68 0 1 0 11.68 11.7 11.68 11.68 0 0 0-11.68-11.7m0 16.35a4.67 4.67 0 1 1 4.67-4.67 4.67 4.67 0 0 1-4.67 4.67" class="bm"/><path d="M261.74 1632a21 21 0 0 0-.36-3.83l9.14-5.28-7-12.14-9.46 5.28a24.5 24.5 0 0 0-6.67-3.83v-10.47H233v10.47a20.2 20.2 0 0 0-6.22 3.83l-9-5.28-6.94 12.14 9.18 5.28a20.3 20.3 0 0 0 0 7.67l-9.14 5.28 7 12.13 8.85-5.28a18.5 18.5 0 0 0 6.52 3.83v10.44h13.78v-10.44a22.2 22.2 0 0 0 7-3.83l9.3 5.28 7.09-12.13-9.1-5.28a21 21 0 0 0 .42-3.84m-21 11.68A11.68 11.68 0 1 1 252.4 1632a11.68 11.68 0 0 1-11.68 11.66Z" class="bn"/><path d="M249.18 1665.22h-18.87v-11.74a23.6 23.6 0 0 1-4-2.5l-9.24 5.69-9.34-16.26 9.75-5.66a22 22 0 0 1-.17-2.63c0-.89 0-1.76.13-2.6l-9.82-5.66 9.16-16.26 9.51 5.68a23.8 23.8 0 0 1 4-2.51v-11.15h18.87v11a46 46 0 0 1 5 2.61l10.22-5.65 9.31 16.13-9.79 5.65a21 21 0 0 1 .16 2.61 20 20 0 0 1-.19 2.63l9.73 5.65-9.45 16.12-10-5.65a27.6 27.6 0 0 1-5 2.6v11.59Zm-14.08-4.8h9.29v-10.21l1.68-.59a25.5 25.5 0 0 0 6.39-3.44l1.24-1 8.76 4.95 4.77-8.15-8.49-4.92.3-1.62a16.6 16.6 0 0 0 0-6.82l-.3-1.62 8.55-4.93-4.7-8.15-9 5-1.22-1a25.8 25.8 0 0 0-6.39-3.44l-1.38-.58v-9.35h-9.8v9.35l-1.27.58a20 20 0 0 0-5.47 3.44l-1.26 1.08-8.28-4.91-4.56 8 8.63 5-.3 1.62a18.4 18.4 0 0 0-.29 3.29 18.7 18.7 0 0 0 .34 3.41l.3 1.62-8.55 4.94 4.66 8 8-4.91 1.28 1.09a19.7 19.7 0 0 0 5.47 3.44l1.57.59v10.21Z"/><path d="M240.72 1646a14 14 0 1 1 14-14 14 14 0 0 1-14 14m0-23.36a9.35 9.35 0 1 0 9.35 9.35 9.37 9.37 0 0 0-9.35-9.36Z"/><path d="M240.72 1639a7 7 0 1 1 7-7 7 7 0 0 1-7 7m0-9.34a2.35 2.35 0 1 0 2.35 2.34 2.34 2.34 0 0 0-2.35-2.36Z"/><path d="M404.51 1498.83c-3.55 1.85-21.9 9.39-25.81 11.43s-6.08 2-9.16.54-22.62-9.36-26.14-11c-1.76-.84-2.68-1.55-2.68-2.22v-6.72s25.43-5.53 29.53-7 5.53-1.53 9-.25 24.39 5 27.84 6.31v6.62c.02.62-.78 1.35-2.58 2.29" class="bo"/><path d="M404.5 1492.12c-3.54 1.84-21.89 9.39-25.8 11.43s-6.08 2-9.16.54-22.62-9.37-26.14-11-3.59-2.84-.13-4.19 22.87-9 27-10.44 5.53-1.53 9-.25 21.73 8.54 25.19 9.81 3.54 2.25.04 4.1" class="bp"/><path d="M404.51 1487.89c-3.55 1.85-21.9 9.39-25.81 11.43s-6.08 2-9.16.54-22.62-9.36-26.14-11c-1.76-.84-2.68-1.54-2.68-2.21v-6.72s25.43-5.53 29.53-7 5.53-1.52 9-.24 24.39 5 27.84 6.31v6.62c.02.6-.78 1.38-2.58 2.27" class="bo"/><path d="M404.5 1481.18c-3.54 1.84-21.89 9.39-25.8 11.43s-6.08 2-9.16.54-22.62-9.37-26.14-11.05-3.59-2.84-.13-4.19 22.87-9 27-10.44 5.53-1.53 9-.25 21.73 8.54 25.19 9.8 3.54 2.31.04 4.16" class="bp"/><path d="M404.51 1476.54c-3.55 1.85-21.9 9.4-25.81 11.43s-6.08 2-9.16.55-22.62-9.37-26.14-11c-1.76-.84-2.68-1.55-2.68-2.22v-6.71s25.43-5.54 29.53-7 5.53-1.53 9-.25 24.39 5 27.84 6.32v6.61c.02.6-.78 1.33-2.58 2.27" class="bo"/><path d="M404.5 1469.83c-3.54 1.85-21.89 9.39-25.8 11.43s-6.08 2-9.16.54-22.62-9.36-26.14-11-3.59-2.84-.13-4.2 22.87-9 27-10.44 5.53-1.53 9-.25 21.73 8.54 25.19 9.81 3.54 2.28.04 4.11" class="bp"/><path d="m382.61 1463.37-5.75.59-1.29 3.1-2.08-3.45-6.64-.6 4.95-1.79-1.48-2.74 4.64 1.81 4.37-1.43-1.18 2.84zM375.23 1478.4l-10.74-4.45 15.38-2.36z" class="t"/><ellipse cx="360.34" cy="1468.28" class="t" rx="8.22" ry="3.19"/><path d="m389.42 1464.21 9.1 3.6-9.09 3.6z" style="fill:#791514"/><path d="m379.36 1468.2 10.07-3.99.01 7.2-.99.38z" style="fill:#ad2524"/><g style="clip-path:url(#u)"><path d="m502.37 1577.67-63.69-31.22-32.68 66.62 63.69 31.22Z" style="fill:url(#v)"/></g><g style="clip-path:url(#w)"><path d="m401.88 1586.9 45 60.87 59.47-43.94-45-60.87Z" style="fill:url(#x)"/></g><g style="clip-path:url(#y)"><path d="M430.45 1566.7v57.54h49.09v-57.54Z" style="fill:url(#z)"/></g><path d="M152.78 1471.15v-33.76l-29.46-16.88-29.46 16.88v33.76l29.46 16.89z" style="fill:#43a047"/><path d="M137.46 1437a3.89 3.89 0 0 0-4.84 3.76v17.48l-17.08-19.1-.2-.24a6.33 6.33 0 0 0-5.2-2 3.88 3.88 0 0 0-3.87 3.88v26.17a4 4 0 0 0 2.91 3.95 3.89 3.89 0 0 0 4.84-3.76v-17.64l17.48 19.57.17.22a6.5 6.5 0 0 0 4.83 1.69 3.88 3.88 0 0 0 3.88-3.87v-26.18a4 4 0 0 0-2.92-3.93" class="t"/><path d="M78.11 1582.26a44 44 0 0 0-7.38.64c-6.53 1.17-7.71 3.61-7.71 8.11v5.91h15.71v2.33H57.44a9.68 9.68 0 0 0-9.67 7.85 29 29 0 0 0 0 15.73c1.1 4.58 3.73 7.85 8.23 7.85h4.69v-7.15a10 10 0 0 1 9.78-9.73h15.68a7.81 7.81 0 0 0 7.71-7.93V1591c0-4.23-3.52-7.4-7.71-8.11a47.5 47.5 0 0 0-8.04-.63m-8.5 5a3 3 0 1 1-2.92 3 3 3 0 0 1 2.92-2.98Z" style="fill:url(#aa)"/><path d="M95.61 1599.25v7a10 10 0 0 1-9.75 9.89H70.3a8 8 0 0 0-7.86 7.93v14.86c0 4.23 3.7 6.71 7.86 7.93a26.54 26.54 0 0 0 15.7 0c4-1.14 7.86-3.43 7.86-7.93V1633H78.15v-2.33h23.29c4.52 0 6.2-3.14 7.77-7.85s1.56-9.51 0-15.73c-1.11-4.48-3.25-7.85-7.77-7.85Zm-8.44 37.56a3 3 0 1 1-2.93 3 2.94 2.94 0 0 1 2.93-3" style="fill:url(#ab)"/><ellipse cx="78.58" cy="1656.82" rx="20.91" ry="4.05" style="isolation:isolate;opacity:.44;fill:url(#ac)"/><path d="M438.4 1712.31c.36-3 .25-3.38 2.45-2.91h.56a12.9 12.9 0 0 0 5.22-.87c2.8-1.3 4.46-3.47 1.7-2.9-6.29 1.3-6.75-.83-6.75-.83 6.65-9.86 9.43-22.38 7-25.45-6.54-8.36-17.86-4.4-18.05-4.3h-.06a22 22 0 0 0-4.21-.43 10.3 10.3 0 0 0-6.64 2s-20.2-8.32-19.26 10.46c.2 4 5.72 30.26 12.32 22.32 2.41-2.91 4.74-5.36 4.74-5.36a6.12 6.12 0 0 0 4 1l.11-.1a4.7 4.7 0 0 0 0 1.13c-1.69 1.9-1.19 2.23-4.59 2.93s-1.41 2-.1 2.3a7 7 0 0 0 7.79-2.53l-.1.4c.67.53.63 3.83.72 6.19a22.5 22.5 0 0 0 .74 5.85c.48 1.29 1 4.64 5.5 3.7 3.73-.8 6.59-2 6.85-12.65" style="stroke-miterlimit:10;stroke:#000;stroke-width:5.37px"/><path d="M448.31 1705.76c-6.29 1.29-6.75-.84-6.75-.84 6.65-9.86 9.43-22.38 7-25.44-6.54-8.36-17.86-4.41-18-4.3h-.06a22 22 0 0 0-4.2-.44 10.43 10.43 0 0 0-6.65 2s-20.2-8.32-19.26 10.47c.2 4 5.73 30.26 12.32 22.31 2.43-2.92 4.76-5.37 4.76-5.37a6.1 6.1 0 0 0 4 1l.11-.09a4.8 4.8 0 0 0 0 1.13c-1.69 1.89-1.19 2.23-4.59 2.93s-1.41 2-.1 2.3a7 7 0 0 0 7.79-2.53l-.1.39c.67.54 1.14 3.47 1.06 6.13s-.13 4.49.39 5.92 1.05 4.63 5.51 3.7c3.73-.8 5.66-2.88 5.93-6.33.19-2.46.62-2.09.65-4.29l.35-1c.4-3.33.07-4.4 2.36-3.9h.56a12.9 12.9 0 0 0 5.21-.88c2.79-1.3 4.45-3.46 1.7-2.89Z" style="fill:#336791"/><path d="M425 1707.59c-.17 6.19 0 12.43.65 13.93s1.91 4.47 6.37 3.51c3.73-.8 5.09-2.35 5.68-5.76l1.38-10.92m-19.43-31.82s-20.21-8.27-19.27 10.52c.2 4 5.73 30.26 12.32 22.31 2.41-2.9 4.59-5.17 4.59-5.17m13.25-29.19c-.7.22 11.24-4.37 18 4.31 2.39 3.06-.38 15.58-7 25.44" class="ce"/><path d="M441.54 1704.76s.44 2.14 6.75.84c2.76-.57 1.1 1.59-1.7 2.89-2.29 1.07-7.44 1.34-7.52-.13-.22-3.8 2.71-2.64 2.49-3.6s-1.5-1.69-2.36-3.79c-.76-1.83-10.36-15.87 2.66-13.79.48-.1-3.39-12.41-15.58-12.59s-11.81 15-11.81 15" style="fill:none;stroke:#fff;stroke-linecap:round;stroke-width:1.79px;stroke-linejoin:bevel"/><path d="M421.56 1706.07c-1.7 1.9-1.2 2.23-4.59 2.93s-1.42 2-.1 2.3a7 7 0 0 0 7.79-2.54 2.32 2.32 0 0 0-1.05-3.19 1.53 1.53 0 0 0-2 .5Z" style="fill:none;stroke:#fff;stroke-linejoin:round;stroke-width:1.79px"/><path d="M421.45 1706c-.17-1.11.37-2.44.94-4 .87-2.33 2.87-4.66 1.27-12.06-1.19-5.51-9.19-1.15-9.19-.4a37.4 37.4 0 0 1-.13 7.33c-.64 4.62 2.94 8.52 7.07 8.12" class="ce"/><path d="M419.55 1689.47c0 .26.47.94 1.12 1a1.2 1.2 0 0 0 1.25-.7c0-.26-.47-.53-1.12-.63s-1.22.08-1.25.33Z" style="stroke-miterlimit:10;fill:#fff;stroke:#fff;stroke-width:.6px"/><path d="M439.5 1689a1.4 1.4 0 0 1-1.13 1 1.21 1.21 0 0 1-1.25-.7c0-.26.47-.53 1.13-.63s1.22.03 1.25.33Z" style="stroke-miterlimit:10;fill:#fff;stroke:#fff;stroke-width:.3px"/><path d="M441.84 1687.18c.11 2-.43 3.37-.5 5.5-.1 3.1 1.48 6.64-.9 10.19" class="ce"/><path d="M166.19 1696.73a23.8 23.8 0 0 1-3 5.29 28.19 28.19 0 1 0-40.56 39.17 10 10 0 0 0 1.16 1.11l1 .93a28.19 28.19 0 0 0 46.27-19.56c.83-7.04-1.32-16.12-4.87-26.94m-38.35 45.86a2.4 2.4 0 1 1-.35-3.38 2.46 2.46 0 0 1 .35 3.38m38.17-8.44c-6.92 9.25-21.82 6.11-31.31 6.58 0 0-1.68.11-3.37.34 0 0 .64-.29 1.45-.58 6.7-2.33 9.84-2.79 13.91-4.89 7.63-3.9 15.25-12.45 16.76-21.3-2.91 8.5-11.75 15.83-19.78 18.8a135 135 0 0 1-15.49 4l-.4-.24c-6.75-3.31-7-18 5.35-22.69 5.41-2.1 10.54-.93 16.41-2.33 6.23-1.46 13.45-6.11 16.36-12.22 3.26 9.85 7.21 25.1.1 34.53Z" class="cj"/><path d="M164.5 1739.85a28.15 28.15 0 0 0 6.58-16.18" class="cj"/><path d="M166 1734.15c-6.92 9.25-21.82 6.11-31.31 6.58 0 0-1.68.11-3.37.34 0 0 .64-.29 1.45-.58 6.7-2.33 9.84-2.79 13.91-4.89 7.63-3.9 15.25-12.45 16.76-21.3-2.91 8.5-11.75 15.83-19.78 18.8a135 135 0 0 1-15.49 4l-.4-.24c-6.75-3.31-7-18 5.35-22.69 5.41-2.1 10.54-.93 16.41-2.33 6.23-1.46 13.45-6.11 16.36-12.22 3.27 9.85 7.22 25.1.11 34.53M127.84 1742.59a2.4 2.4 0 1 1-.35-3.38 2.46 2.46 0 0 1 .35 3.38" class="t"/><path d="m1020.972 499.36 19.367-43.997 57.615 25.363-19.368 43.996z" class="ck"/><path d="m1079.14 526.19-59.71-26.28 20.28-46.1 59.72 26.28Zm-56.7-27.46 55.56 24.44 18.45-41.9-55.52-24.44Z" class="cl"/><path d="m1027.009 497.013 15.68-35.622 49.232 21.673-15.681 35.62z" class="cl"/><path d="m1076.79 520.15-51.33-22.59 16.6-37.71 51.33 22.59Zm-48.31-23.76 47.14 20.75 14.75-33.53-47.14-20.75Z" class="ck"/><circle cx="1048.84" cy="475.37" r="5.23" style="fill:#f3d55a"/><path d="m1079.72 507.82-.54-1.62-7.5-17.06-16.3 7.21 3.22 8.27 2.35 6.06 14.67 6.46z" style="fill:#11a085"/><path d="m1028.48 496.39 32.47 14.29-2.35-6.06-6.44-16.54-23.22 7.26z" style="fill:#26b999"/><text style="font-size:36px;font-family:MicrosoftYaHei,Microsoft YaHei;fill:#39b54a" transform="rotate(-3.61 9215.663 -7182.339)">H<tspan x="27.84" y="0" style="letter-spacing:.02em">T</tspan><tspan x="49.22" y="0">TP</tspan></text><path d="M1112.98 508.9h44.87v57.11h-44.87z" style="fill:#8697cb" transform="rotate(-58 1137.012 535.148)"/><path d="m1148.15 573-50.23-31.23 24.76-39.84 50.24 31.23Zm-47.42-31.88 46.77 29.07 22.61-36.37-46.77-29.08Z" class="cs"/><path d="m1128.31 541.16 3.79-6.1 3.75-6.02 5.76 11.98z" class="t"/><path d="m1117.111 512.892 5.925-9.528 8.662 5.385-5.924 9.529z" class="ct"/><path d="m1126.08 519.64-10.39-6.46 7-11.26 10.4 6.46Zm-7.59-7.11 6.93 4.3 4.85-7.79-6.93-4.31Z" class="cs"/><path d="m1113.819 522.619 5.947-9.537 8.67 5.406-5.947 9.537z" class="ct"/><path d="m1120.16 529.17-10.4-6.46 7-11.26 10.4 6.46Zm-7.59-7.12 6.93 4.31 4.85-7.79-6.93-4.31Z" class="cs"/><path d="m1105.277 531.951 5.924-9.529 8.662 5.386-5.924 9.529z" class="ct"/><path d="m1114.23 538.7-10.39-6.46 7-11.26 10.39 6.46Zm-7.58-7.12 6.93 4.31 4.84-7.8-6.92-4.3Z" class="cs"/><path d="m1099.346 541.475 5.924-9.528 8.662 5.385-5.924 9.529z" class="ct"/><path d="m1108.31 548.22-10.39-6.46 7-11.26 10.39 6.46Zm-7.58-7.11 6.93 4.3 4.84-7.79-6.93-4.31Z" class="cs"/><path d="m1156.953 537.667 5.924-9.529 8.662 5.386-5.924 9.528z" class="ct"/><path d="m1165.92 544.41-10.39-6.41 7-11.26 10.4 6.46Zm-7.59-7.12 6.93 4.31 4.85-7.79-6.93-4.31Z" class="cs"/><path d="m1151.04 547.196 5.924-9.528 8.663 5.385-5.924 9.529z" class="ct"/><path d="m1160 553.94-10.4-6.46 7-11.26 10.4 6.46Zm-7.59-7.12 6.93 4.31 4.85-7.8-6.93-4.3Z" class="cs"/><path d="m1145.11 556.71 5.923-9.528 8.663 5.385-5.924 9.529z" class="ct"/><path d="m1154.07 563.46-10.39-6.46 7-11.26 10.39 6.46Zm-7.58-7.11 6.93 4.3 4.84-7.79-6.92-4.31Z" class="cs"/><path d="m1139.187 566.24 5.924-9.53 8.662 5.386-5.924 9.529z" class="ct"/><path d="m1148.15 573-10.39-6.46 7-11.26 10.39 6.46Zm-7.58-7.12 6.93 4.31 4.84-7.79-6.93-4.31Z" class="cs"/><path d="m997.06 440.09-27.23-6.58c-.76-.19-1.52.28-1.81 1.47l-12 49.81c-.08.32.39 1.09 1.14 1.27l37.61 9.09a1.45 1.45 0 0 0 1.6-.61l9.53-39.43c.16-.66.13-.89 0-1.08l-8.28-13.56a.86.86 0 0 0-.56-.38" style="fill:#e9e9e0"/><path d="m997.51 440.35-2.69 11.12 11.12 2.68z" style="fill:#d9d7ca"/><path d="m994.73 495.15-37.61-9.09a1.42 1.42 0 0 1-1-1.71l3.53-14.58 40.35 9.76-3.52 14.58a1.42 1.42 0 0 1-1.75 1.04" class="cw"/><path d="m969 476-2.49 10.33-1.88-.46 1.14-4.69-3.76-.91-1.11 4.73-1.88-.45 2.5-10.32 1.87.45-.91 3.76 3.76.9.91-3.75ZM978.41 478.29l-.23.94-2.81-.68-2 8.45-1.87-.46 2-8.44-2.82-.69.23-.93ZM987.22 480.42l1.51.37-2.27 9.38-1.87-.45 1.49-6.19-2.93 4.85-1.36-.33-1.34-5.88-1.5 6.19-.93-.23 2.26-9.39 1.52.37 1.16 7.08ZM993.42 481.92l-2 8.45 3.76.9-.23.94-5.63-1.36 2.27-9.38Z" class="t"/><path d="M980.62 452.64a1 1 0 0 0-1.33-.32l-7 4.27a1 1 0 0 0-.32 1.32l4.27 7a1 1 0 0 0 .6.43 1 1 0 0 0 .73-.11 1 1 0 0 0 .32-1.33l-3.77-6.17 6.18-3.73a1 1 0 0 0 .32-1.36M996.15 462.35l-4.27-7a1 1 0 0 0-1.65 1l3.77 6.17-6.17 3.76a1 1 0 0 0-.32 1.33.93.93 0 0 0 .6.43 1 1 0 0 0 .73-.11l7-4.27a1 1 0 0 0 .31-1.31" class="cw"/><path d="m435.66 573.76 27.21-1.71a2.06 2.06 0 0 0 1.92-2.17l-1.46-23.14a2 2 0 0 0-2.17-1.91l-2.05.13-.37-6a11.59 11.59 0 1 0-23.15 1.31l.39 6.13-2 .13a2 2 0 0 0-1.91 2.17l1.46 23.13a2 2 0 0 0 2.13 1.93m14.83-14 .17 2.67a2.09 2.09 0 0 1-1.68 2.19 2 2 0 0 1-2.4-1.88l-.18-2.74a3.41 3.41 0 1 1 5.28-3.06 3.44 3.44 0 0 1-1.19 2.85ZM439.68 540a7.5 7.5 0 1 1 15-.84l.38 6-15 .95Z" style="fill:#39b54a"/></svg>