<svg xmlns="http://www.w3.org/2000/svg" width="330" height="330" viewBox="0 0 330 330"><path d="m310.09-1.15-26.43 296.16-118.84 32.94-118.51-32.9-26.4-296.2z" style="fill:#264de4"/><path d="m261.02 276.15 22.6-253.08H165v279.7z" style="fill:#2965f1"/><path d="m80.45 132.93 3.25 36.32H165v-36.32zM165 59.4H73.91l3.3 36.32H165zM165 265.07v-37.8l-.16.05-40.46-10.93-2.58-28.97H85.33l5.09 57.04 74.41 20.66z" style="fill:#ebebeb"/><path d="m209.61 169.25-4.22 47.12-40.52 10.94v37.79l74.48-20.64.55-6.14 8.53-95.64.89-9.75 6.56-73.53h-91.01v36.32h51.19l-3.3 37.21h-47.89v36.32z" style="fill:#fff"/></svg>