<svg xmlns="http://www.w3.org/2000/svg" xml:space="preserve" viewBox="0 0 512.001 512.001"><path d="M117.673 54.152h276.654v398.249H117.673z" style="fill:#fd7"/><path d="M416.115 75.939v354.675l-32.681 21.787V54.152z" style="fill:#ffcc3d"/><path d="M128.567 54.152v398.249l-32.681-21.787V75.939z" style="fill:#f9f0b5"/><path d="M416.115 433.882v44.054c0 14.608-11.83 26.439-26.428 26.439H122.314c-14.597 0-26.428-11.83-26.428-26.439v-44.054zM416.115 34.064v44.054H95.886V34.064c0-14.608 11.83-26.439 26.428-26.439h267.373c14.597.001 26.428 11.831 26.428 26.439" style="fill:#804e30"/><path d="M300.193 137.277c-2.503 0-4.958.187-7.356.541l-36.836 192.241 84.538-111.738a50.34 50.34 0 0 0 10.219-30.479c0-27.926-22.64-50.565-50.565-50.565" style="fill:#ed2f49"/><path d="M219.165 137.818a50 50 0 0 0-7.356-.541c-27.926 0-50.565 22.639-50.565 50.565a50.34 50.34 0 0 0 10.219 30.479l84.538 111.738z" style="fill:#fe7074"/><path d="M323.684 187.842c0-25.419-13.399-46.451-30.847-50.023-16.079 2.376-29.539 12.426-36.836 26.32-7.297-13.894-20.757-23.944-36.836-26.32-17.448 3.572-30.847 24.603-30.847 50.023 0 11.447 2.718 22.004 7.3 30.479l60.383 111.738 60.384-111.738c4.581-8.475 7.299-19.032 7.299-30.479" style="fill:#ff455e"/><path d="M389.684 0H122.317c-19.081 0-34.606 15.523-34.606 34.606v442.79c0 19.081 15.524 34.606 34.606 34.606h267.366c19.082 0 34.606-15.523 34.606-34.606V34.606C424.289 15.523 408.766 0 389.684 0M104.052 86.834h303.896v338.332H104.052zm18.265-70.494h267.366c10.071 0 18.265 8.193 18.265 18.265v35.888H104.052V34.606c0-10.072 8.194-18.266 18.265-18.266m267.367 479.32H122.317c-10.072 0-18.265-8.194-18.265-18.265v-35.888h303.896v35.888c.001 10.07-8.193 18.265-18.264 18.265" style="fill:#1d2328"/><path d="M322.639 52.126c4.805 0 8.715-3.91 8.715-8.715s-3.91-8.715-8.715-8.715-8.715 3.91-8.715 8.715 3.91 8.715 8.715 8.715M279.132 460.413H232.87a8.17 8.17 0 0 0 0 16.34h46.262a8.17 8.17 0 0 0 0-16.34M232.87 51.587h46.262c4.513 0 8.17-3.658 8.17-8.17s-3.657-8.17-8.17-8.17H232.87a8.17 8.17 0 0 0 0 16.34M249.485 337.712a8.17 8.17 0 0 0 13.03 0l84.537-111.737c7.768-10.267 11.874-22.512 11.874-35.409 0-32.387-26.349-58.735-58.735-58.735-17.159 0-33.265 7.518-44.299 20.188-10.699-12.359-26.494-20.188-44.085-20.188-32.387 0-58.735 26.348-58.735 58.735 0 12.899 4.106 25.144 11.874 35.409zm-37.677-189.541c23.138 0 41.962 18.824 41.962 41.962a8.17 8.17 0 0 0 8.17 8.17 8.17 8.17 0 0 0 8.17-8.17c0-8.339-1.76-16.276-4.927-23.456 7.858-11.503 20.944-18.505 35.009-18.505 23.377 0 42.395 19.018 42.395 42.395 0 9.31-2.962 18.144-8.565 25.55L256 319.241l-78.022-103.126c-5.603-7.404-8.565-16.239-8.565-25.55.001-23.376 19.019-42.394 42.395-42.394M350.758 363.829H161.244a8.17 8.17 0 0 0 0 16.34h189.513a8.17 8.17 0 0 0 8.17-8.17 8.17 8.17 0 0 0-8.169-8.17" style="fill:#1d2328"/></svg>