<svg xmlns="http://www.w3.org/2000/svg" width="145" height="145" viewBox="0 0 145 145"><defs><linearGradient id="b" x1="-661.36" x2="-659.76" y1="367.24" y2="367.24" data-name="未命名的渐变" gradientTransform="scale(-115.3 115.3)rotate(63.888 -36.583 713.127)" gradientUnits="userSpaceOnUse"><stop offset=".3" stop-color="#3e863d"/><stop offset=".5" stop-color="#55934f"/><stop offset=".8" stop-color="#5aad45"/></linearGradient><linearGradient id="d" x1="-664.24" x2="-663.2" y1="356.13" y2="356.13" data-name="未命名的渐变 2" gradientTransform="scale(177.06 -177.06)rotate(36.459 209.596 1186.09)" gradientUnits="userSpaceOnUse"><stop offset=".57" stop-color="#3e863d"/><stop offset=".72" stop-color="#619857"/><stop offset="1" stop-color="#76ac64"/></linearGradient><linearGradient id="f" x1="-659.96" x2="-659.02" y1="355.85" y2="355.85" data-name="未命名的渐变 3" gradientTransform="matrix(129.89 0 0 -129.89 85735.11 46294)" gradientUnits="userSpaceOnUse"><stop offset=".16" stop-color="#6bbf47"/><stop offset=".38" stop-color="#79b461"/><stop offset=".47" stop-color="#75ac64"/><stop offset=".7" stop-color="#659e5a"/><stop offset=".9" stop-color="#3e863d"/></linearGradient><clipPath id="a"><path d="M69.11 1.74 12.94 34.17A6.76 6.76 0 0 0 9.54 40v64.89a6.78 6.78 0 0 0 3.4 5.88l56.18 32.45a6.83 6.83 0 0 0 6.78 0l56.17-32.45a6.82 6.82 0 0 0 3.39-5.88V40a6.78 6.78 0 0 0-3.4-5.87L75.9 1.74a6.87 6.87 0 0 0-6.8 0" style="fill:none"/></clipPath><clipPath id="c"><path d="M10.94 109.05a6.7 6.7 0 0 0 2 1.76l48.18 27.83 8 4.61a6.76 6.76 0 0 0 3.91.89 7.4 7.4 0 0 0 1.33-.24l59.28-108.48a6.5 6.5 0 0 0-1.58-1.26L95.28 12.92 75.84 1.74A7.2 7.2 0 0 0 74.08 1Z" style="fill:none"/></clipPath><clipPath id="e"><path d="M71.83.88a6.8 6.8 0 0 0-2.72.86l-56 32.33 60.4 110a6.7 6.7 0 0 0 2.41-.83l56.18-32.45a6.83 6.83 0 0 0 3.28-4.64L73.79 1a7 7 0 0 0-1.37-.15 5 5 0 0 0-.56 0" style="fill:none"/></clipPath></defs><g style="clip-path:url(#a)"><path d="M192.22 28.66 33.94-48.92l-81.16 165.56 158.28 77.59Z" style="fill:url(#b)"/></g><g style="clip-path:url(#c)"><path d="M-57.5 51.61 54.26 202.88 202.08 93.67 90.3-57.59Z" style="fill:url(#d)"/></g><g style="clip-path:url(#e)"><path d="M13.1.85v143.24h122.24V.85Z" style="fill:url(#f)"/></g></svg>