<svg xmlns="http://www.w3.org/2000/svg" xml:space="preserve" viewBox="0 0 512.002 512.002"><path d="M435.574 435.575H25.119c-9.446 0-17.102-7.656-17.102-17.102V59.324c0-9.446 7.656-17.102 17.102-17.102h410.455c9.446 0 17.102 7.656 17.102 17.102v359.148c0 9.446-7.656 17.103-17.102 17.103" style="fill:#e4eaf8"/><path d="m414.071 435.575 38.605-38.605V252.965c-1.998 1.299-3.893 2.779-5.617 4.503l-127.66 127.659-3.289 3.29-1.925 4.235-19.509 42.922z" style="fill:#d5dced"/><path d="M8.017 110.631V59.324c0-9.446 7.656-17.102 17.102-17.102h410.455c9.446 0 17.102 7.656 17.102 17.102v51.307" style="fill:#c7cfe2"/><circle cx="93.528" cy="187.591" r="17.102" style="fill:#ffdc64"/><circle cx="93.528" cy="273.103" r="17.102" style="fill:#ffc850"/><circle cx="93.528" cy="358.614" r="17.102" style="fill:#ffdc64"/><path d="m373.819 439.547-66.512 30.233 30.233-66.512 127.659-127.659a8.55 8.55 0 0 1 12.093 0l24.186 24.186a8.55 8.55 0 0 1 0 12.093z" style="fill:#ffdc64"/><path d="m354.338 422.748 135.048-135.047-12.093-12.092a8.55 8.55 0 0 0-12.092 0L337.539 403.266l-.838 1.845z" style="fill:#ffc850"/><path d="m307.307 469.779 64.668-29.394-35.274-35.274z" style="fill:#faebc8"/><path d="m336.701 405.111-29.394 64.668 47.031-47.031z" style="fill:#f5dcb4"/><path d="M477.292 275.607a8.55 8.55 0 0 0-12.092 0l-17.837 17.836 36.279 36.279 17.836-17.837a8.55 8.55 0 0 0 0-12.093z" style="fill:#faebc8"/><path d="m489.387 287.701-12.093-12.092a8.55 8.55 0 0 0-12.092 0l-17.837 17.836 18.139 18.139z" style="fill:#f5dcb4"/><path d="M290.205 427.558H25.119c-5.01 0-9.086-4.076-9.086-9.086V118.648h316.928a8.017 8.017 0 0 0 0-16.034H16.033v-43.29c0-5.01 4.076-9.086 9.086-9.086h410.455c5.01 0 9.086 4.076 9.086 9.086v43.29h-26.188a8.017 8.017 0 0 0 0 16.034h26.188V247.45a8.017 8.017 0 0 0 16.034 0V59.324c0-13.851-11.268-25.119-25.119-25.119H25.119C11.268 34.205 0 45.473 0 59.324v359.148c0 13.851 11.268 25.119 25.119 25.119h265.086a8.017 8.017 0 0 0 0-16.033"/><path d="M384.269 102.614h-17.104a8.017 8.017 0 0 0 0 16.034h17.105a8.017 8.017 0 1 0-.001-16.034M42.221 68.41c-4.427 0-7.974 3.589-7.974 8.017s3.632 8.017 8.059 8.017a8.017 8.017 0 0 0 0-16.034zM110.63 68.41c-4.427 0-7.974 3.589-7.974 8.017s3.632 8.017 8.059 8.017a8.017 8.017 0 0 0 0-16.034zM76.34 68.41c-4.427 0-7.974 3.589-7.974 8.017s3.632 8.017 8.059 8.017a8.017 8.017 0 0 0 0-16.034zM426.489 76.426a8.017 8.017 0 0 0-8.017-8.017H144.835a8.017 8.017 0 0 0 0 16.034h273.637a8.017 8.017 0 0 0 8.017-8.017M93.528 162.472c-13.851 0-25.119 11.268-25.119 25.119s11.268 25.119 25.119 25.119 25.119-11.268 25.119-25.119-11.268-25.119-25.119-25.119m0 34.205c-5.01 0-9.086-4.076-9.086-9.086s4.076-9.086 9.086-9.086 9.086 4.076 9.086 9.086-4.076 9.086-9.086 9.086M384.267 162.472H144.835a8.017 8.017 0 0 0 0 16.034h239.432a8.017 8.017 0 0 0 0-16.034M144.835 212.71h17.102a8.017 8.017 0 0 0 0-16.034h-17.102a8.017 8.017 0 0 0 0 16.034M264.551 212.71a8.017 8.017 0 0 0 0-16.034h-17.102a8.017 8.017 0 0 0 0 16.034zM213.244 212.71a8.017 8.017 0 0 0 0-16.034h-17.102a8.017 8.017 0 0 0 0 16.034zM93.528 247.984c-13.851 0-25.119 11.268-25.119 25.119s11.268 25.119 25.119 25.119 25.119-11.268 25.119-25.119-11.268-25.119-25.119-25.119m0 34.204c-5.01 0-9.086-4.076-9.086-9.086s4.076-9.086 9.086-9.086 9.086 4.076 9.086 9.086-4.076 9.086-9.086 9.086M392.284 256.001a8.017 8.017 0 0 0-8.017-8.017H144.835a8.017 8.017 0 0 0 0 16.034h239.432a8.02 8.02 0 0 0 8.017-8.017M144.835 298.222h17.102a8.017 8.017 0 0 0 0-16.034h-17.102a8.017 8.017 0 0 0 0 16.034M264.551 298.222a8.017 8.017 0 0 0 0-16.034h-17.102a8.017 8.017 0 0 0 0 16.034zM213.244 298.222a8.017 8.017 0 0 0 0-16.034h-17.102a8.017 8.017 0 0 0 0 16.034zM93.528 333.495c-13.851 0-25.119 11.268-25.119 25.119s11.268 25.119 25.119 25.119 25.119-11.268 25.119-25.119-11.268-25.119-25.119-25.119m0 34.205c-5.01 0-9.086-4.076-9.086-9.086s4.076-9.086 9.086-9.086 9.086 4.076 9.086 9.086-4.076 9.086-9.086 9.086M315.324 341.512a8.017 8.017 0 0 0-8.017-8.017H144.835a8.017 8.017 0 0 0 0 16.034h162.472a8.02 8.02 0 0 0 8.017-8.017M144.835 367.7a8.017 8.017 0 0 0 0 16.034h17.102a8.017 8.017 0 0 0 0-16.034zM247.449 367.7a8.017 8.017 0 0 0 0 16.034h17.102a8.017 8.017 0 0 0 0-16.034zM196.142 367.7a8.017 8.017 0 0 0 0 16.034h17.102a8.017 8.017 0 0 0 0-16.034zM507.147 294.125l-24.186-24.186a16.46 16.46 0 0 0-11.715-4.854 16.46 16.46 0 0 0-11.715 4.853l-127.66 127.66a8 8 0 0 0-1.629 2.352l-30.233 66.513a8.016 8.016 0 0 0 10.615 10.616l66.513-30.233a8 8 0 0 0 2.352-1.629l127.659-127.659c3.13-3.13 4.854-7.29 4.854-11.715s-1.725-8.589-4.855-11.718m-158.27 109.142 98.182-98.182 24.942 24.942-98.182 98.182zm-8.826 13.848 19.92 19.92-36.52 16.6zm155.76-110.897-12.471 12.471-24.942-24.942 12.472-12.472c.038-.039.156-.156.377-.156s.339.118.378.156l24.187 24.187c.038.039.156.156.156.377.001.222-.119.34-.157.379"/></svg>